<svg width="24" height="23" viewBox="0 0 24 23" fill="none" xmlns="http://www.w3.org/2000/svg">
<path d="M12.4915 1.4375C10.5013 1.4375 8.5558 2.02766 6.90103 3.13334C5.24626 4.23902 3.95653 5.81057 3.19492 7.64925C2.43331 9.48793 2.23404 11.5112 2.62231 13.4631C3.01057 15.415 3.96893 17.208 5.3762 18.6153C6.78346 20.0225 8.57643 20.9809 10.5284 21.3692C12.4803 21.7574 14.5035 21.5581 16.3422 20.7965C18.1809 20.0349 19.7524 18.7452 20.8581 17.0904C21.9638 15.4357 22.554 13.4902 22.554 11.5C22.554 8.83126 21.4938 6.27182 19.6067 4.38474C17.7196 2.49765 15.1602 1.4375 12.4915 1.4375ZM8.17896 18.9678C8.28574 17.904 8.78391 16.9177 9.57678 16.2005C10.3697 15.4832 11.4007 15.086 12.4699 15.086C13.5391 15.086 14.5701 15.4832 15.363 16.2005C16.1559 16.9177 16.6541 17.904 16.7608 18.9678C15.4579 19.726 13.9774 20.1254 12.4699 20.1254C10.9624 20.1254 9.48189 19.726 8.17896 18.9678ZM18.0546 18.0622C17.7482 16.8123 17.0314 15.7013 16.019 14.907C15.0065 14.1127 13.7568 13.681 12.4699 13.681C11.183 13.681 9.93334 14.1127 8.92084 14.907C7.90835 15.7013 7.19157 16.8123 6.88521 18.0622C5.5398 16.919 4.5776 15.3905 4.12855 13.6831C3.6795 11.9757 3.76524 10.1716 4.37418 8.51447C4.98313 6.85733 6.08594 5.42698 7.5337 4.41657C8.98146 3.40616 10.7044 2.86437 12.4699 2.86437C14.2354 2.86437 15.9583 3.40616 17.4061 4.41657C18.8539 5.42698 19.9567 6.85733 20.5656 8.51447C21.1746 10.1716 21.2603 11.9757 20.8112 13.6831C20.3622 15.3905 19.4 16.919 18.0546 18.0622ZM12.4915 5.75C11.7807 5.75 11.0859 5.96077 10.4949 6.35566C9.90389 6.75054 9.44327 7.31181 9.17127 7.96848C8.89927 8.62515 8.8281 9.34774 8.96676 10.0449C9.10543 10.742 9.4477 11.3823 9.9503 11.8849C10.4529 12.3875 11.0932 12.7298 11.7904 12.8684C12.4875 13.0071 13.2101 12.9359 13.8667 12.6639C14.5234 12.3919 15.0847 11.9313 15.4796 11.3403C15.8744 10.7493 16.0852 10.0545 16.0852 9.34375C16.0852 8.39063 15.7066 7.47654 15.0326 6.80259C14.3587 6.12863 13.4446 5.75 12.4915 5.75ZM12.4915 11.5C12.065 11.5 11.6481 11.3735 11.2935 11.1366C10.9389 10.8997 10.6625 10.5629 10.4993 10.1689C10.3361 9.77491 10.2934 9.34136 10.3766 8.92309C10.4598 8.50482 10.6652 8.12061 10.9668 7.81905C11.2683 7.51749 11.6525 7.31213 12.0708 7.22893C12.4891 7.14573 12.9226 7.18843 13.3166 7.35163C13.7106 7.51484 14.0474 7.79121 14.2843 8.1458C14.5212 8.5004 14.6477 8.91728 14.6477 9.34375C14.6477 9.91562 14.4205 10.4641 14.0162 10.8685C13.6118 11.2728 13.0633 11.5 12.4915 11.5Z" fill="white"/>
</svg>
