<svg width="46" height="46" viewBox="0 0 46 46" fill="none" xmlns="http://www.w3.org/2000/svg">
<g clip-path="url(#clip0_106_357)">
<path fill-rule="evenodd" clip-rule="evenodd" d="M27.324 0.0402261C26.9432 0.046281 26.5804 0.20317 26.3152 0.476454C26.05 0.749737 25.9041 1.11708 25.9095 1.49785V5.7816H21.6027C21.4144 5.78122 21.2278 5.81809 21.0537 5.89009C20.8797 5.96208 20.7215 6.06779 20.5885 6.20112C20.4554 6.33445 20.35 6.49278 20.2784 6.66699C20.2067 6.8412 20.1702 7.02786 20.171 7.21623V12.3884C21.3727 12.3567 23.0402 13.4866 23.0402 13.4866V8.65373H27.0077C27.2279 8.70648 27.4574 8.70648 27.6776 8.65373H38.4876C38.7069 8.70602 38.9354 8.70602 39.1546 8.65373H43.1307V23H32.5191C33.3241 23.8251 33.3558 24.8917 33.5915 25.875H44.5625C44.9437 25.875 45.3094 25.7235 45.579 25.4539C45.8485 25.1844 46 24.8187 46 24.4375V7.21623C45.9996 7.02783 45.9621 6.84135 45.8897 6.66744C45.8173 6.49353 45.7113 6.33559 45.5778 6.20263C45.4443 6.06968 45.2859 5.96433 45.1117 5.89258C44.9375 5.82083 44.7509 5.7841 44.5625 5.78448H40.2615V1.50073C40.2646 1.30807 40.229 1.11676 40.1567 0.938161C40.0844 0.759561 39.9769 0.597317 39.8407 0.461073C39.7044 0.324829 39.5422 0.217365 39.3636 0.145069C39.185 0.072772 38.9937 0.0371182 38.801 0.0402261C38.4202 0.046281 38.0574 0.20317 37.7922 0.476454C37.527 0.749737 37.3811 1.11708 37.3865 1.49785V5.7816H28.7845V1.50073C28.7872 1.30831 28.7513 1.11731 28.6788 0.939048C28.6063 0.760783 28.4988 0.598884 28.3626 0.462948C28.2264 0.327012 28.0643 0.219806 27.8859 0.147687C27.7075 0.0755677 27.5164 0.037128 27.324 0.0402261ZM25.9095 11.523V14.3922H28.7788V11.523H25.9095ZM31.648 11.523V14.3922H34.523V11.523H31.648ZM37.3923 11.523V14.3922H40.2615V11.523H37.3923ZM15.7895 14.375C11.6027 14.3811 7.58928 16.0473 4.62933 19.0084C1.66938 21.9694 0.00456296 25.9835 0 30.1702C0.00456597 34.3565 1.66956 38.3699 4.62968 41.33C7.5898 44.2902 11.6033 45.9552 15.7895 45.9597C19.9763 45.9552 23.9903 44.2903 26.9514 41.3304C29.9124 38.3704 31.5787 34.357 31.5848 30.1702C31.5787 25.9829 29.9126 21.9689 26.9517 19.008C23.9908 16.0472 19.9768 14.3811 15.7895 14.375ZM15.7895 17.2442C17.4877 17.2416 19.1698 17.5741 20.7392 18.2228C22.3087 18.8714 23.7347 19.8234 24.9355 21.0243C26.1363 22.2251 27.0883 23.6511 27.737 25.2205C28.3856 26.79 28.7181 28.472 28.7155 30.1702C28.7182 31.8682 28.3856 33.5499 27.7369 35.1191C27.0881 36.6882 26.136 38.1138 24.9351 39.3142C23.7342 40.5145 22.3082 41.466 20.7388 42.114C19.1693 42.7621 17.4874 43.0939 15.7895 43.0905C14.0918 43.0939 12.4102 42.762 10.8411 42.1139C9.27201 41.4658 7.84633 40.5143 6.6459 39.3138C5.44546 38.1134 4.4939 36.6877 3.8458 35.1186C3.1977 33.5495 2.86584 31.8679 2.86925 30.1702C2.86584 28.4723 3.19767 26.7904 3.84569 25.221C4.49372 23.6515 5.44519 22.2255 6.64555 21.0246C7.84591 19.8237 9.27154 18.8716 10.8407 18.2229C12.4098 17.5741 14.0916 17.2416 15.7895 17.2442ZM31.648 17.2615V20.1307H34.523V17.2615H31.648ZM37.3923 17.2615V20.1307H40.2615V17.2615H37.3923ZM15.7723 19.1532C15.5835 19.1562 15.3971 19.1964 15.2239 19.2714C15.0506 19.3464 14.8938 19.4548 14.7625 19.5905C14.6311 19.7261 14.5278 19.8863 14.4583 20.0618C14.3889 20.2374 14.3547 20.4249 14.3577 20.6137V30.1702C14.3577 30.5515 14.5092 30.9171 14.7788 31.1867C15.0484 31.4563 15.414 31.6077 15.7952 31.6077H24.4547C24.836 31.6077 25.2016 31.4563 25.4712 31.1867C25.7408 30.9171 25.8922 30.5515 25.8922 30.1702C25.8922 29.789 25.7408 29.4233 25.4712 29.1538C25.2016 28.8842 24.836 28.7327 24.4547 28.7327H17.2327V20.6137C17.2359 20.4211 17.2002 20.2298 17.1279 20.0512C17.0556 19.8726 16.9481 19.7103 16.8119 19.5741C16.6757 19.4378 16.5134 19.3304 16.3348 19.2581C16.1562 19.1858 15.9649 19.1501 15.7723 19.1532Z" fill="black"/>
</g>
<defs>
<clipPath id="clip0_106_357">
<rect width="46" height="46" fill="white"/>
</clipPath>
</defs>
</svg>
