<svg width="20" height="18" viewBox="0 0 20 18" fill="none" xmlns="http://www.w3.org/2000/svg">
<path d="M1.06665 0.833393H2.63832C3.06537 0.831465 3.48063 0.973362 3.81721 1.23622C4.15378 1.49908 4.39206 1.8676 4.49365 2.28239L6.07298 8.58439C6.17603 9.00568 6.42001 9.37907 6.76445 9.64263C7.10889 9.90618 7.53308 10.0441 7.96665 10.0334H15.02C15.4221 10.0331 15.8139 9.90633 16.14 9.67105C16.4661 9.43577 16.7099 9.10389 16.837 8.72239L18.194 4.66673C18.2573 4.49293 18.2775 4.30635 18.2528 4.12303C18.2281 3.93971 18.1592 3.76513 18.0521 3.6143C17.945 3.46347 17.8029 3.34091 17.638 3.25714C17.4731 3.17337 17.2903 3.1309 17.1053 3.13339H4.89998M9.11666 14.6333C9.11666 15.6919 8.25854 16.55 7.19999 16.55C6.14145 16.55 5.28333 15.6919 5.28333 14.6333C5.28333 13.5748 6.14145 12.7167 7.19999 12.7167C8.25854 12.7167 9.11666 13.5748 9.11666 14.6333ZM16.7833 14.6333C16.7833 15.6919 15.9252 16.55 14.8666 16.55C13.8081 16.55 12.95 15.6919 12.95 14.6333C12.95 13.5748 13.8081 12.7167 14.8666 12.7167C15.9252 12.7167 16.7833 13.5748 16.7833 14.6333Z" stroke="white" stroke-width="1.5" stroke-linecap="round" stroke-linejoin="round"/>
</svg>
