<svg width="24" height="24" viewBox="0 0 24 24" fill="none" xmlns="http://www.w3.org/2000/svg">
<path d="M22.8488 8.62499L10.125 1.39874C9.73552 1.17815 9.27443 1.12099 8.84283 1.23978C8.41123 1.35858 8.04433 1.64364 7.82255 2.03249L7.2413 3.07124C7.18042 3.17921 7.16478 3.3069 7.19782 3.42637C7.23085 3.54585 7.30985 3.64737 7.41755 3.70874L22.2488 12.15C22.3568 12.2109 22.4845 12.2265 22.6039 12.1935C22.7234 12.1604 22.8249 12.0814 22.8863 11.9737L23.4788 10.935C23.5894 10.742 23.6608 10.5291 23.6889 10.3085C23.7171 10.0879 23.7015 9.86388 23.6429 9.64931C23.5844 9.43474 23.4842 9.23382 23.3479 9.05806C23.2116 8.88229 23.042 8.73512 22.8488 8.62499ZM22.665 10.4662L22.29 11.1L8.28755 3.12749L8.66255 2.49374C8.76082 2.32356 8.92196 2.19874 9.11131 2.14615C9.30066 2.09355 9.50308 2.11737 9.67505 2.21249L22.3838 9.44624C22.4701 9.49492 22.5458 9.56021 22.6067 9.63832C22.6676 9.71644 22.7124 9.80585 22.7385 9.90138C22.7647 9.99691 22.7717 10.0967 22.759 10.1949C22.7464 10.2931 22.7145 10.3879 22.665 10.4737V10.4662ZM21.8926 12.78L7.0613 4.33499C6.95333 4.27411 6.82564 4.25847 6.70616 4.2915C6.58669 4.32453 6.48517 4.40354 6.4238 4.51124L4.2113 8.39249C3.99071 8.78201 3.93355 9.24311 4.05234 9.67471C4.17114 10.1063 4.4562 10.4732 4.84505 10.695L5.92505 11.31C6.03006 11.3489 6.14551 11.3489 6.25052 11.31C6.35553 11.2711 6.44315 11.1959 6.49753 11.098C6.55191 11.0001 6.56945 10.886 6.54698 10.7763C6.52452 10.6666 6.46353 10.5686 6.37505 10.5L5.29505 9.88499C5.20929 9.8363 5.13398 9.77119 5.07341 9.69336C5.01285 9.61554 4.96823 9.52653 4.94211 9.43144C4.91599 9.33635 4.90887 9.23704 4.92117 9.1392C4.93347 9.04136 4.96495 8.9469 5.0138 8.86124L6.9938 5.38499L21.0188 13.3612L19.2263 16.5C19.194 16.5535 19.1728 16.6129 19.1638 16.6748C19.1548 16.7366 19.1583 16.7996 19.174 16.8601C19.1897 16.9206 19.2174 16.9773 19.2554 17.0269C19.2933 17.0766 19.3408 17.1181 19.3951 17.1491C19.4494 17.1801 19.5093 17.2 19.5713 17.2075C19.6333 17.215 19.6963 17.21 19.7564 17.1929C19.8164 17.1757 19.8725 17.1467 19.9212 17.1076C19.9699 17.0684 20.0103 17.02 20.04 16.965L22.0688 13.4025C22.125 13.296 22.1381 13.1719 22.1053 13.056C22.0725 12.94 21.9963 12.8412 21.8926 12.78Z" fill="#79879A"/>
<path d="M16.6125 12.12H1.98755C1.53965 12.121 1.11044 12.2996 0.794078 12.6167C0.477718 12.9337 0.300048 13.3633 0.300049 13.8112V21.135C0.300048 21.5829 0.477718 22.0125 0.794078 22.3296C1.11044 22.6466 1.53965 22.8253 1.98755 22.8262H16.6125C17.0604 22.8253 17.4897 22.6466 17.806 22.3296C18.1224 22.0125 18.3 21.5829 18.3 21.135V13.8112C18.3 13.3633 18.1224 12.9337 17.806 12.6167C17.4897 12.2996 17.0604 12.121 16.6125 12.12ZM17.3625 21.12C17.3625 21.3189 17.2835 21.5097 17.1429 21.6503C17.0022 21.791 16.8115 21.87 16.6125 21.87H1.98755C1.78864 21.87 1.59787 21.791 1.45722 21.6503C1.31657 21.5097 1.23755 21.3189 1.23755 21.12V13.8112C1.23755 13.6123 1.31657 13.4216 1.45722 13.2809C1.59787 13.1403 1.78864 13.0612 1.98755 13.0612H16.6125C16.8115 13.0612 17.0022 13.1403 17.1429 13.2809C17.2835 13.4216 17.3625 13.6123 17.3625 13.8112V21.12Z" fill="#79879A"/>
<path d="M16.3876 18.885H14.4826C14.3583 18.885 14.2391 18.9344 14.1512 19.0223C14.0632 19.1102 14.0139 19.2294 14.0139 19.3537C14.0139 19.4781 14.0632 19.5973 14.1512 19.6852C14.2391 19.7731 14.3583 19.8225 14.4826 19.8225H16.3876C16.5119 19.8225 16.6312 19.7731 16.7191 19.6852C16.807 19.5973 16.8564 19.4781 16.8564 19.3537C16.8564 19.2294 16.807 19.1102 16.7191 19.0223C16.6312 18.9344 16.5119 18.885 16.3876 18.885ZM4.50011 18.885H2.58761C2.46329 18.885 2.34406 18.9344 2.25615 19.0223C2.16824 19.1102 2.11886 19.2294 2.11886 19.3537C2.11886 19.4781 2.16824 19.5973 2.25615 19.6852C2.34406 19.7731 2.46329 19.8225 2.58761 19.8225H4.50011C4.62443 19.8225 4.74366 19.7731 4.83156 19.6852C4.91947 19.5973 4.96886 19.4781 4.96886 19.3537C4.96886 19.2294 4.91947 19.1102 4.83156 19.0223C4.74366 18.9344 4.62443 18.885 4.50011 18.885ZM4.39136 15.12H2.89136C2.59299 15.12 2.30684 15.2385 2.09586 15.4495C1.88488 15.6605 1.76636 15.9466 1.76636 16.245V16.89C1.76636 17.1884 1.88488 17.4745 2.09586 17.6855C2.30684 17.8965 2.59299 18.015 2.89136 18.015H4.39136C4.68973 18.015 4.97587 17.8965 5.18685 17.6855C5.39783 17.4745 5.51636 17.1884 5.51636 16.89V16.2525C5.51735 16.1041 5.48898 15.957 5.43288 15.8197C5.37679 15.6823 5.29408 15.5574 5.18952 15.4521C5.08495 15.3469 4.9606 15.2633 4.82362 15.2063C4.68663 15.1493 4.53973 15.12 4.39136 15.12ZM4.58636 16.8975C4.58636 16.9231 4.58131 16.9485 4.57151 16.9721C4.56171 16.9958 4.54735 17.0173 4.52924 17.0354C4.51114 17.0535 4.48964 17.0679 4.46598 17.0777C4.44232 17.0875 4.41697 17.0925 4.39136 17.0925H2.89136C2.86575 17.0925 2.84039 17.0875 2.81673 17.0777C2.79308 17.0679 2.77158 17.0535 2.75347 17.0354C2.73536 17.0173 2.721 16.9958 2.7112 16.9721C2.7014 16.9485 2.69636 16.9231 2.69636 16.8975V16.2525C2.69636 16.2008 2.7169 16.1512 2.75347 16.1146C2.79004 16.078 2.83964 16.0575 2.89136 16.0575H4.39136C4.44307 16.0575 4.49267 16.078 4.52924 16.1146C4.56581 16.1512 4.58636 16.2008 4.58636 16.2525V16.8975ZM8.58011 18.885H6.30386C6.17954 18.885 6.06031 18.9344 5.9724 19.0223C5.88449 19.1102 5.83511 19.2294 5.83511 19.3537C5.83511 19.4781 5.88449 19.5973 5.9724 19.6852C6.06031 19.7731 6.17954 19.8225 6.30386 19.8225H8.58386C8.70818 19.8225 8.82741 19.7731 8.91531 19.6852C9.00322 19.5973 9.05261 19.4781 9.05261 19.3537C9.05261 19.2294 9.00322 19.1102 8.91531 19.0223C8.82741 18.9344 8.70818 18.885 8.58386 18.885H8.58011ZM12.6714 18.885H10.3914C10.267 18.885 10.1478 18.9344 10.0599 19.0223C9.97199 19.1102 9.92261 19.2294 9.92261 19.3537C9.92261 19.4781 9.97199 19.5973 10.0599 19.6852C10.1478 19.7731 10.267 19.8225 10.3914 19.8225H12.6714C12.7957 19.8225 12.9149 19.7731 13.0028 19.6852C13.0907 19.5973 13.1401 19.4781 13.1401 19.3537C13.1401 19.2294 13.0907 19.1102 13.0028 19.0223C12.9149 18.9344 12.7957 18.885 12.6714 18.885Z" fill="#79879A"/>
</svg>
