<svg width="32" height="32" viewBox="0 0 32 32" fill="none" xmlns="http://www.w3.org/2000/svg">
<g clip-path="url(#clip0_54_217)">
<path d="M23.8667 11.3331C23.4667 10.6664 23.3333 9.99975 23.3333 9.33309C23.3333 7.86642 24.1333 6.53309 25.4667 5.86642L23.8667 3.06642C23.3333 2.13309 22.1333 1.86642 21.2 2.39975L1.59999 13.5998C0.666655 14.1331 0.399989 15.3331 0.933322 16.2664L2.66666 19.1998C4.53332 18.1331 7.06666 18.6664 8.13332 20.5331C8.26666 20.7998 8.39999 21.1998 8.53332 21.5998" stroke="#4D4D4F" stroke-width="2" stroke-linecap="round" stroke-linejoin="round"/>
<path d="M12.6667 11.9997V13.4663M12.6667 17.4663V18.7997M12.6667 22.7997V24.133M12.6667 28.133V29.4663M24.6667 15.333L16.6667 25.9997M27.3334 20.6663C27.3334 18.3997 29.0667 16.6663 31.3334 16.6663V13.333C31.3334 12.2663 30.4 11.333 29.3334 11.333H6.66669C5.60002 11.333 4.66669 12.2663 4.66669 13.333V16.6663C6.93335 16.6663 8.66669 18.3997 8.66669 20.6663C8.66669 22.933 6.93335 24.6663 4.66669 24.6663V27.9997C4.66669 29.0663 5.60002 29.9997 6.66669 29.9997H29.3334C30.4 29.9997 31.3334 29.0663 31.3334 27.9997V24.6663C29.0667 24.6663 27.3334 22.933 27.3334 20.6663Z" stroke="#4D4D4F" stroke-width="2" stroke-linecap="round" stroke-linejoin="round"/>
<path d="M18 19.333C18.7364 19.333 19.3334 18.4376 19.3334 17.333C19.3334 16.2284 18.7364 15.333 18 15.333C17.2636 15.333 16.6667 16.2284 16.6667 17.333C16.6667 18.4376 17.2636 19.333 18 19.333Z" stroke="#4D4D4F" stroke-width="2" stroke-linecap="round" stroke-linejoin="round"/>
<path d="M23.3333 26C24.0697 26 24.6667 25.1046 24.6667 24C24.6667 22.8954 24.0697 22 23.3333 22C22.597 22 22 22.8954 22 24C22 25.1046 22.597 26 23.3333 26Z" stroke="#4D4D4F" stroke-width="2" stroke-linecap="round" stroke-linejoin="round"/>
</g>
<defs>
<clipPath id="clip0_54_217">
<rect width="32" height="32" fill="white"/>
</clipPath>
</defs>
</svg>
