<svg width="38" height="38" viewBox="0 0 38 38" fill="none" xmlns="http://www.w3.org/2000/svg">
<path d="M4.74996 12.6667C5.69996 12.6667 6.33329 12.0333 6.33329 11.0833V7.91666C6.33329 6.96666 6.96663 6.33332 7.91663 6.33332H11.0833C12.0333 6.33332 12.6666 5.69999 12.6666 4.74999C12.6666 3.79999 12.0333 3.16666 11.0833 3.16666H7.91663C5.22496 3.16666 3.16663 5.22499 3.16663 7.91666V11.0833C3.16663 12.0333 3.79996 12.6667 4.74996 12.6667ZM7.91663 34.8333H11.0833C12.0333 34.8333 12.6666 34.2 12.6666 33.25C12.6666 32.3 12.0333 31.6667 11.0833 31.6667H7.91663C6.96663 31.6667 6.33329 31.0333 6.33329 30.0833V26.9167C6.33329 25.9667 5.69996 25.3333 4.74996 25.3333C3.79996 25.3333 3.16663 25.9667 3.16663 26.9167V30.0833C3.16663 32.775 5.22496 34.8333 7.91663 34.8333ZM30.0833 3.16666H26.9166C25.9666 3.16666 25.3333 3.79999 25.3333 4.74999C25.3333 5.69999 25.9666 6.33332 26.9166 6.33332H30.0833C31.0333 6.33332 31.6666 6.96666 31.6666 7.91666V11.0833C31.6666 12.0333 32.3 12.6667 33.25 12.6667C34.2 12.6667 34.8333 12.0333 34.8333 11.0833V7.91666C34.8333 5.22499 32.775 3.16666 30.0833 3.16666ZM33.25 25.3333C32.3 25.3333 31.6666 25.9667 31.6666 26.9167V30.0833C31.6666 31.0333 31.0333 31.6667 30.0833 31.6667H26.9166C25.9666 31.6667 25.3333 32.3 25.3333 33.25C25.3333 34.2 25.9666 34.8333 26.9166 34.8333H30.0833C32.775 34.8333 34.8333 32.775 34.8333 30.0833V26.9167C34.8333 25.9667 34.2 25.3333 33.25 25.3333Z" fill="black"/>
</svg>
