<svg width="24" height="20" viewBox="0 0 24 20" fill="none" xmlns="http://www.w3.org/2000/svg">
<path d="M21.5624 5.42498C21.4499 5.19998 21.1499 5.12498 20.9249 5.23748C20.8874 5.27498 20.8499 5.27498 20.8124 5.34998L14.8124 10.7125C14.5124 10.975 14.2499 11.2375 13.9499 11.4625C13.3874 11.95 12.7124 12.175 12.0749 12.175H11.9249C11.2499 12.175 10.5749 11.9125 10.0124 11.4625C9.71241 11.2375 9.44991 10.975 9.18741 10.7125L3.22491 5.34998C3.18741 5.31248 3.11241 5.27498 3.07491 5.23748C2.84991 5.12498 2.54991 5.19998 2.43741 5.42498C2.32491 5.64998 2.36241 5.91248 2.58741 6.06248L7.08741 10.15L3.18741 14.0125C3.11241 14.0875 3.03741 14.2375 3.03741 14.35C3.03741 14.4625 3.07491 14.6125 3.18741 14.6875C3.37491 14.875 3.67491 14.875 3.86241 14.6875L7.79991 10.75L8.51241 11.3875C8.84991 11.6875 9.11241 11.95 9.41241 12.175C10.1624 12.8125 11.0249 13.1125 11.9624 13.1125H12.0749C12.9749 13.1125 13.8374 12.775 14.5874 12.175L15.4874 11.3875L16.1999 10.75L20.1374 14.6875C20.2124 14.7625 20.3624 14.8375 20.4749 14.8375C20.5874 14.8375 20.7374 14.8 20.8124 14.6875C20.8874 14.6125 20.9624 14.4625 20.9624 14.35C20.9624 14.2375 20.9249 14.0875 20.8124 14.0125L16.9124 10.1125L21.4124 6.02498C21.5999 5.91248 21.6749 5.61248 21.5624 5.42498Z" fill="#91969A"/>
<path d="M19.0126 19.0375H4.9876C2.3626 19.0375 0.225098 16.9 0.225098 14.275V5.64995C0.225098 3.02495 2.3626 0.887451 4.9876 0.887451H19.0126C21.6376 0.887451 23.7751 3.02495 23.7751 5.64995V14.275C23.7751 16.9375 21.6376 19.0375 19.0126 19.0375ZM4.9876 1.86245C2.8876 1.86245 1.1626 3.58745 1.1626 5.68745V14.3125C1.1626 16.4125 2.8876 18.1375 4.9876 18.1375H19.0126C21.1126 18.1375 22.8376 16.4125 22.8376 14.3125V5.68745C22.8376 3.58745 21.1126 1.86245 19.0126 1.86245H4.9876Z" fill="#91969A"/>
</svg>
