<svg width="32" height="32" viewBox="0 0 32 32" fill="none" xmlns="http://www.w3.org/2000/svg">
<path fill-rule="evenodd" clip-rule="evenodd" d="M17.9346 5.97041H13.9062C13.6836 3.70247 11.9578 1.99023 9.95035 1.99023C7.94295 1.99023 6.21709 3.70247 5.99429 5.97041H4.97506C3.32659 5.97041 1.98999 7.30677 1.98999 8.95549C1.98999 13.1184 1.98999 22.7031 1.98999 26.8659C1.98999 27.6576 2.3045 28.417 2.86426 28.9767C3.42426 29.5365 4.18342 29.851 4.97506 29.851H26.8657C28.5144 29.851 29.8508 28.5147 29.8508 26.8659V8.95549C29.8508 8.16385 29.5363 7.40444 28.9765 6.84468C28.4167 6.28492 27.6573 5.97041 26.8657 5.97041H25.8465C25.6239 3.70247 23.8981 1.99023 21.8906 1.99023C19.8832 1.99023 18.1574 3.70247 17.9346 5.97041ZM27.8608 13.9305V26.8659C27.8608 27.4154 27.4152 27.861 26.8657 27.861H4.97506C4.71118 27.861 4.45805 27.7562 4.27154 27.5695C4.08503 27.383 3.9802 27.1298 3.9802 26.8659V13.9305H27.8608ZM16.7463 15.8154C16.5615 15.5406 16.2517 15.3755 15.9205 15.3755C15.589 15.3755 15.2795 15.5406 15.0947 15.8154L13.5606 18.0977L10.9161 18.8514C10.5973 18.9424 10.3449 19.1857 10.2424 19.5009C10.1402 19.8161 10.2013 20.1615 10.4058 20.4222L12.102 22.5865L12.0017 25.3345C11.9898 25.6657 12.1433 25.9809 12.4112 26.1758C12.6794 26.3704 13.0266 26.4191 13.3378 26.3052L15.9205 25.3607L18.5029 26.3052C18.8141 26.4191 19.1616 26.3704 19.4295 26.1758C19.6977 25.9809 19.8512 25.6657 19.8391 25.3345L19.7388 22.5865L21.4352 20.4222C21.6397 20.1615 21.7008 19.8161 21.5983 19.5009C21.4959 19.1857 21.2435 18.9424 20.9249 18.8514L18.2804 18.0977L16.7463 15.8154ZM15.9205 18.1543L16.8318 19.51C16.9629 19.7049 17.1587 19.8472 17.3849 19.9117L18.9557 20.3594L17.948 21.6452C17.803 21.8302 17.7283 22.0604 17.7369 22.2954L17.7963 23.9279L16.2622 23.3667C16.0416 23.286 15.7994 23.286 15.5785 23.3667L14.0444 23.9279L14.1039 22.2954C14.1125 22.0604 14.0378 21.8302 13.8928 21.6452L12.885 20.3594L14.4561 19.9117C14.6821 19.8472 14.8779 19.7049 15.009 19.51L15.9205 18.1543ZM20.2949 7.96038C20.6503 8.55835 21.2191 8.95549 21.8906 8.95549C22.4397 8.95549 22.8855 9.40134 22.8855 9.95059C22.8855 10.4996 22.4397 10.9455 21.8906 10.9455C20.1894 10.9455 18.6904 9.71585 18.1371 7.96038H8.35465C8.70999 8.55835 9.27883 8.95549 9.95035 8.95549C10.4994 8.95549 10.9452 9.40134 10.9452 9.95059C10.9452 10.4996 10.4994 10.9455 9.95035 10.9455C8.24909 10.9455 6.75011 9.71585 6.1968 7.96038H4.97506C4.42557 7.96038 3.9802 8.406 3.9802 8.95549V11.9406H27.8608V8.95549C27.8608 8.69161 27.756 8.43847 27.5692 8.25197C27.3827 8.06522 27.1296 7.96038 26.8657 7.96038H20.2949ZM23.8407 5.97041C23.6612 4.85901 22.8896 3.98044 21.8906 3.98044C20.8915 3.98044 20.1199 4.85901 19.9403 5.97041H23.8407ZM11.9004 5.97041C11.7209 4.85901 10.9493 3.98044 9.95035 3.98044C8.95118 3.98044 8.1796 4.85901 8.00002 5.97041H11.9004Z" fill="#4D4D4F"/>
</svg>
