<svg width="38" height="39" viewBox="0 0 38 39" fill="none" xmlns="http://www.w3.org/2000/svg">
<path d="M37.6225 15.2009C36.8625 12.9208 34.5823 11.4007 32.3022 11.4007C29.072 11.4007 26.6019 13.8708 26.6019 17.101C26.6019 19.5712 28.1219 21.6613 30.4021 22.4214V25.6516C30.4021 30.4018 26.6019 34.2021 21.8516 34.2021C17.1013 34.2021 13.301 30.4018 13.301 25.6516V23.7514L19.1914 19.0011C21.4715 17.101 22.8016 14.4409 22.8016 11.5907V1.90011C22.8016 0.760046 22.0416 0 20.9015 0H17.1013C15.9612 0 15.2012 0.760046 15.2012 1.90011C15.2012 3.04018 15.9612 3.80023 17.1013 3.80023H19.0014V11.5907C19.0014 13.3008 18.2413 15.0109 16.9113 15.961L11.4009 20.3312L5.8906 15.961C4.56052 15.0109 3.80047 13.3008 3.80047 11.5907V3.80023H5.70059C6.84066 3.80023 7.6007 3.04018 7.6007 1.90011C7.6007 0.760046 6.84066 0 5.70059 0H1.90036C0.76029 0 0.000244141 0.760046 0.000244141 1.90011V11.5907C0.000244141 14.4409 1.33032 17.291 3.61046 19.0011L9.50082 23.7514V25.6516C9.50082 32.492 15.0112 38.0023 21.8516 38.0023C28.692 38.0023 34.2023 32.492 34.2023 25.6516V22.4214C37.2425 21.4713 38.7626 18.2411 37.6225 15.2009Z" fill="black"/>
</svg>
