<svg width="25" height="25" viewBox="0 0 25 25" fill="none" xmlns="http://www.w3.org/2000/svg">
<path d="M12.5008 10.6666C13.081 10.6666 13.6481 10.4946 14.1305 10.1722C14.6129 9.8499 14.9889 9.39177 15.2109 8.85576C15.4329 8.31975 15.491 7.72995 15.3779 7.16092C15.2647 6.5919 14.9853 6.06922 14.575 5.65898C14.1648 5.24873 13.6421 4.96936 13.0731 4.85617C12.5041 4.74298 11.9142 4.80108 11.3782 5.0231C10.8422 5.24512 10.3841 5.6211 10.0618 6.10349C9.73942 6.58589 9.56738 7.15303 9.56738 7.7332C9.56738 8.51118 9.87644 9.25731 10.4266 9.80742C10.9767 10.3575 11.7228 10.6666 12.5008 10.6666ZM12.5008 6.2665C12.7909 6.2665 13.0745 6.35252 13.3157 6.51369C13.5569 6.67485 13.7448 6.90392 13.8559 7.17192C13.9669 7.43992 13.9959 7.73483 13.9393 8.01934C13.8827 8.30385 13.743 8.56519 13.5379 8.77031C13.3328 8.97543 13.0715 9.11512 12.7869 9.17172C12.5024 9.22831 12.2075 9.19926 11.9395 9.08825C11.6715 8.97724 11.4424 8.78925 11.2813 8.54805C11.1201 8.30686 11.0341 8.02329 11.0341 7.7332C11.0341 7.34421 11.1886 6.97115 11.4637 6.69609C11.7387 6.42103 12.1118 6.2665 12.5008 6.2665Z" fill="#79879A"/>
<path d="M19.7895 12.2506C19.7383 12.1089 19.6446 11.9864 19.5213 11.8998C19.3979 11.8132 19.2509 11.7667 19.1002 11.7666H17.6335C18.2448 10.5011 18.6177 9.13385 18.7335 7.73322C18.7335 6.08 18.0768 4.4945 16.9078 3.32549C15.7387 2.15649 14.1532 1.49976 12.5 1.49976C10.8468 1.49976 9.26125 2.15649 8.09224 3.32549C6.92323 4.4945 6.26649 6.08 6.26649 7.73322C6.3823 9.13385 6.75521 10.5011 7.36652 11.7666H5.89981C5.7491 11.7667 5.60206 11.8132 5.47872 11.8998C5.35537 11.9864 5.2617 12.1089 5.21046 12.2506L1.54369 22.5175C1.50366 22.6282 1.49088 22.747 1.50642 22.8637C1.52196 22.9804 1.56538 23.0916 1.63299 23.188C1.7006 23.2844 1.79043 23.3631 1.89487 23.4174C1.99932 23.4718 2.11531 23.5002 2.23304 23.5002H22.767C22.8847 23.5002 23.0007 23.4718 23.1051 23.4174C23.2096 23.3631 23.2994 23.2844 23.367 23.188C23.4346 23.0916 23.478 22.9804 23.4936 22.8637C23.5091 22.747 23.4963 22.6282 23.4563 22.5175L19.7895 12.2506ZM12.5 2.96645C13.7636 2.96839 14.975 3.47123 15.8685 4.36475C16.762 5.25827 17.2649 6.46959 17.2668 7.73322C17.0943 9.29177 16.6184 10.8015 15.8661 12.1773C14.3994 15.162 12.9327 16.8121 12.522 16.9001C12.4452 16.8797 12.373 16.8449 12.3093 16.7974C11.2161 15.7849 10.323 14.5759 9.67659 13.2333L9.50792 12.9107C9.38325 12.6687 9.25857 12.434 9.1339 12.1773C8.38141 10.8016 7.90555 9.29181 7.7332 7.73322C7.73514 6.46959 8.23798 5.25827 9.1315 4.36475C10.025 3.47123 11.2364 2.96839 12.5 2.96645ZM3.27441 22.0335L6.42049 13.2333H8.01921V13.2773L8.15121 13.5267L8.20988 13.6293L8.34922 13.886L8.42255 14.018L8.57656 14.2894L8.66456 14.4434L8.83323 14.7L8.9359 14.8687L9.11924 15.162L9.22924 15.3307L9.44191 15.6534L9.53725 15.8001L9.84526 16.2327L10.1826 16.6727L10.2853 16.7901L10.5346 17.0834L10.6666 17.2228L10.894 17.4501L11.0333 17.6334L11.2533 17.8168L11.4 17.9268L11.62 18.0734L11.7593 18.1541C11.8376 18.1937 11.9185 18.228 12.0013 18.2568L12.1187 18.3008C12.3568 18.3791 12.6138 18.3791 12.852 18.3008L12.9693 18.2568C13.0522 18.228 13.1331 18.1937 13.2114 18.1541L13.3507 18.0734L13.5707 17.9268L13.7174 17.8168L13.9667 17.6334L14.106 17.5014L14.3334 17.2741L14.4654 17.1347L14.7147 16.8414L14.8174 16.7241L15.1547 16.2841V16.2401L15.4481 15.8221L15.5508 15.6681L15.7561 15.3527L15.8661 15.1767L16.0494 14.8834L16.1668 14.7L16.3281 14.4287L16.4234 14.2674L16.5701 14.0107L16.6508 13.864L16.7755 13.6293L16.8415 13.5047L16.9661 13.2627V13.2113H18.5722L21.7183 22.0115L3.27441 22.0335Z" fill="#79879A"/>
</svg>
