<svg width="52" height="52" viewBox="0 0 52 52" fill="none" xmlns="http://www.w3.org/2000/svg">
<path d="M36.666 12.0754L40.113 15.5226L36.6658 18.9697L33.2187 15.5225L36.666 12.0754Z" stroke="black" stroke-width="0.8125" stroke-miterlimit="10" stroke-linecap="round" stroke-linejoin="round"/>
<path d="M36.666 12.0754L40.113 15.5226L36.6658 18.9697L33.2187 15.5225L36.666 12.0754Z" stroke="black" stroke-width="0.8125" stroke-miterlimit="10" stroke-linecap="round" stroke-linejoin="round"/>
<path d="M36.0311 12.7108C32.9231 10.2782 29.158 8.83183 25.2207 8.55807C28.3079 10.3654 31.1972 12.4911 33.8414 14.9005L36.0311 12.7108ZM39.4785 16.1574L37.2888 18.3471C39.6983 20.9911 41.8241 23.8804 43.6312 26.9677C43.3573 23.0305 41.911 19.2654 39.4785 16.1574ZM37.5285 12.363L38.1029 11.7886C38.1783 11.7131 38.2679 11.6531 38.3664 11.6123C38.465 11.5714 38.5707 11.5503 38.6774 11.5503C38.7841 11.5503 38.8897 11.5714 38.9883 11.6123C39.0869 11.6531 39.1764 11.7131 39.2518 11.7886L40.4007 12.9375C40.4762 13.0128 40.5361 13.1024 40.577 13.2009C40.6179 13.2995 40.6389 13.4052 40.6389 13.5119C40.6389 13.6186 40.6179 13.7243 40.577 13.8228C40.5361 13.9214 40.4762 14.0109 40.4007 14.0863L39.8262 14.6608M19.0742 16.3987L16.7764 18.6964L19.6494 23.8672L24.2457 19.2709L19.0742 16.3987ZM20.2231 20.995C20.1468 21.0712 20.0434 21.1139 19.9355 21.1139C19.8277 21.1138 19.7244 21.0709 19.6482 20.9946C19.572 20.9183 19.5293 20.8149 19.5294 20.7071C19.5294 20.5993 19.5723 20.4959 19.6486 20.4198C19.6864 20.382 19.7312 20.3521 19.7805 20.3317C19.8299 20.3114 19.8827 20.3009 19.9361 20.3009C19.9895 20.3009 20.0423 20.3115 20.0917 20.332C20.141 20.3524 20.1857 20.3824 20.2235 20.4202C20.2612 20.4579 20.2911 20.5028 20.3115 20.5521C20.3319 20.6014 20.3423 20.6543 20.3423 20.7077C20.3423 20.7611 20.3317 20.8139 20.3113 20.8632C20.2908 20.9125 20.2608 20.9573 20.2231 20.995ZM20.7983 19.8453C20.7221 19.769 20.6794 19.6656 20.6795 19.5578C20.6795 19.45 20.7224 19.3467 20.7987 19.2705C20.875 19.1943 20.9784 19.1516 21.0862 19.1516C21.194 19.1517 21.2974 19.1946 21.3736 19.2709C21.4113 19.3087 21.4412 19.3535 21.4616 19.4028C21.482 19.4522 21.4924 19.505 21.4924 19.5584C21.4924 19.6118 21.4818 19.6646 21.4614 19.7139C21.4409 19.7632 21.4109 19.808 21.3731 19.8457C21.3354 19.8834 21.2905 19.9134 21.2412 19.9338C21.1919 19.9541 21.139 19.9646 21.0856 19.9646C21.0323 19.9645 20.9794 19.954 20.9301 19.9335C20.8808 19.9131 20.836 19.8831 20.7983 19.8453Z" fill="black"/>
<path d="M21.3724 23.2944L23.6704 20.9963L39.8964 37.2217L37.5984 39.5198L21.3724 23.2944Z" fill="black"/>
<path d="M27.4323 22.4589L33.506 16.3849L35.8042 18.6829L29.7304 24.7569L27.4323 22.4589Z" fill="black"/>
<path d="M22.8362 27.0546L10.526 39.3656C10.3708 39.5155 10.247 39.6948 10.1619 39.8931C10.0767 40.0913 10.0319 40.3046 10.03 40.5203C10.0281 40.7361 10.0692 40.9501 10.1509 41.1498C10.2327 41.3495 10.3533 41.5309 10.5059 41.6835C10.6585 41.8361 10.8399 41.9567 11.0396 42.0384C11.2393 42.1201 11.4533 42.1613 11.6691 42.1594C11.8848 42.1575 12.0981 42.1127 12.2963 42.0275C12.4946 41.9424 12.6739 41.8186 12.8238 41.6634L25.1348 29.3524L22.8362 27.0546ZM15.7683 18.5559L18.933 15.3912L22.6266 17.4427L24.8195 15.2498L20.4727 10.9029C19.693 10.1234 18.728 9.55504 17.6682 9.25117C16.6085 8.94729 15.4889 8.91791 14.4147 9.16579L10.4562 10.079L9.54291 14.0375C9.2951 15.1118 9.32452 16.2314 9.62839 17.2911C9.93227 18.3508 10.5006 19.3159 11.28 20.0955L15.6269 24.4424L17.8198 22.2495L15.7683 18.5559Z" fill="black"/>
<path d="M38.1729 41.8169L42.1948 37.795L43.3437 38.9439C43.6483 39.2487 43.8194 39.6619 43.8194 40.0928C43.8194 40.5237 43.6483 40.9369 43.3437 41.2417L41.6204 42.965C41.3156 43.2696 40.9024 43.4408 40.4715 43.4408C40.0406 43.4408 39.6273 43.2696 39.3226 42.965L38.1729 41.8169Z" stroke="black" stroke-width="0.8125" stroke-miterlimit="10" stroke-linecap="round" stroke-linejoin="round"/>
<path d="M39.3227 42.9658L37.0242 40.6681L41.046 36.6462L43.3438 38.9447" stroke="black" stroke-width="0.8125" stroke-miterlimit="10" stroke-linecap="round" stroke-linejoin="round"/>
</svg>
