<svg width="46" height="46" viewBox="0 0 46 46" fill="none" xmlns="http://www.w3.org/2000/svg">
<path d="M31.8358 36.0972H14.1641C11.6552 36.0972 10.3531 34.5473 10.3531 32.3284V14.6561C10.3531 12.4117 11.7248 9.90277 14.1641 9.90277H31.8358C34.2744 9.90277 36.5476 12.4123 36.5476 14.6561V32.3278C36.5476 34.5473 34.3447 36.0972 31.8358 36.0972ZM14.1641 12.4583C13.3348 12.4583 12.9087 13.5885 12.9087 14.6561V32.3278C12.9087 33.3832 13.5271 33.541 14.1641 33.541H31.8358C32.4728 33.541 33.992 33.3832 33.992 32.3278V14.6561C33.992 13.5879 32.6651 12.4583 31.8358 12.4583H14.1641Z" fill="black"/>
<path d="M23.9583 15.6528H23.3194C23.1499 15.6528 22.9874 15.5855 22.8676 15.4657C22.7478 15.3458 22.6805 15.1833 22.6805 15.0139C22.6805 14.8444 22.7478 14.6819 22.8676 14.5621C22.9874 14.4423 23.1499 14.375 23.3194 14.375H23.9583C24.1277 14.375 24.2902 14.4423 24.41 14.5621C24.5299 14.6819 24.5972 14.8444 24.5972 15.0139C24.5972 15.1833 24.5299 15.3458 24.41 15.4657C24.2902 15.5855 24.1277 15.6528 23.9583 15.6528ZM14.8254 20.7639C14.6559 20.7639 14.4934 20.6966 14.3736 20.5768C14.2538 20.457 14.1865 20.2944 14.1865 20.125V18.6396C14.1865 16.5434 13.7361 14.375 17.2896 14.375H20.7638C20.9333 14.375 21.0958 14.4423 21.2156 14.5621C21.3354 14.6819 21.4027 14.8444 21.4027 15.0139C21.4027 15.1833 21.3354 15.3458 21.2156 15.4657C21.0958 15.5855 20.9333 15.6528 20.7638 15.6528H17.2896C15.0132 15.6528 15.4643 16.4054 15.4643 18.6396V20.125C15.4643 20.2944 15.3969 20.457 15.2771 20.5768C15.1573 20.6966 14.9948 20.7639 14.8254 20.7639ZM43.1249 15.0139H39.9305C39.5916 15.0139 39.2666 14.8793 39.027 14.6396C38.7873 14.4 38.6527 14.075 38.6527 13.7361C38.6527 13.3972 38.7873 13.0722 39.027 12.8326C39.2666 12.593 39.5916 12.4583 39.9305 12.4583H43.1249C43.4638 12.4583 43.7888 12.593 44.0285 12.8326C44.2681 13.0722 44.4027 13.3972 44.4027 13.7361C44.4027 14.075 44.2681 14.4 44.0285 14.6396C43.7888 14.8793 43.4638 15.0139 43.1249 15.0139ZM43.1249 22.0417H39.9305C39.5916 22.0417 39.2666 21.907 39.027 21.6674C38.7873 21.4278 38.6527 21.1028 38.6527 20.7639C38.6527 20.425 38.7873 20.1 39.027 19.8604C39.2666 19.6207 39.5916 19.4861 39.9305 19.4861H43.1249C43.4638 19.4861 43.7888 19.6207 44.0285 19.8604C44.2681 20.1 44.4027 20.425 44.4027 20.7639C44.4027 21.1028 44.2681 21.4278 44.0285 21.6674C43.7888 21.907 43.4638 22.0417 43.1249 22.0417ZM43.1249 28.4306H39.9305C39.5916 28.4306 39.2666 28.2959 39.027 28.0563C38.7873 27.8167 38.6527 27.4917 38.6527 27.1528C38.6527 26.8139 38.7873 26.4889 39.027 26.2493C39.2666 26.0096 39.5916 25.875 39.9305 25.875H43.1249C43.4638 25.875 43.7888 26.0096 44.0285 26.2493C44.2681 26.4889 44.4027 26.8139 44.4027 27.1528C44.4027 27.4917 44.2681 27.8167 44.0285 28.0563C43.7888 28.2959 43.4638 28.4306 43.1249 28.4306ZM43.1249 34.1806H39.9305C39.5916 34.1806 39.2666 34.0459 39.027 33.8063C38.7873 33.5667 38.6527 33.2417 38.6527 32.9028C38.6527 32.5639 38.7873 32.2389 39.027 31.9993C39.2666 31.7596 39.5916 31.625 39.9305 31.625H43.1249C43.4638 31.625 43.7888 31.7596 44.0285 31.9993C44.2681 32.2389 44.4027 32.5639 44.4027 32.9028C44.4027 33.2417 44.2681 33.5667 44.0285 33.8063C43.7888 34.0459 43.4638 34.1806 43.1249 34.1806ZM13.5476 7.98611C13.2087 7.98611 12.8837 7.85149 12.6441 7.61186C12.4044 7.37223 12.2698 7.04722 12.2698 6.70834V3.51389C12.2698 3.175 12.4044 2.85 12.6441 2.61037C12.8837 2.37074 13.2087 2.23611 13.5476 2.23611C13.8865 2.23611 14.2115 2.37074 14.4511 2.61037C14.6907 2.85 14.8254 3.175 14.8254 3.51389V6.70834C14.8254 7.04722 14.6907 7.37223 14.4511 7.61186C14.2115 7.85149 13.8865 7.98611 13.5476 7.98611ZM19.9365 7.98611C19.5976 7.98611 19.2726 7.85149 19.0329 7.61186C18.7933 7.37223 18.6587 7.04722 18.6587 6.70834V3.51389C18.6587 3.175 18.7933 2.85 19.0329 2.61037C19.2726 2.37074 19.5976 2.23611 19.9365 2.23611C20.2754 2.23611 20.6004 2.37074 20.84 2.61037C21.0796 2.85 21.2143 3.175 21.2143 3.51389V6.70834C21.2143 7.04722 21.0796 7.37223 20.84 7.61186C20.6004 7.85149 20.2754 7.98611 19.9365 7.98611ZM26.9643 7.98611C26.6254 7.98611 26.3004 7.85149 26.0607 7.61186C25.8211 7.37223 25.6865 7.04722 25.6865 6.70834V3.51389C25.6865 3.175 25.8211 2.85 26.0607 2.61037C26.3004 2.37074 26.6254 2.23611 26.9643 2.23611C27.3031 2.23611 27.6281 2.37074 27.8678 2.61037C28.1074 2.85 28.242 3.175 28.242 3.51389V6.70834C28.242 7.04722 28.1074 7.37223 27.8678 7.61186C27.6281 7.85149 27.3031 7.98611 26.9643 7.98611ZM32.7143 7.98611C32.3754 7.98611 32.0504 7.85149 31.8107 7.61186C31.5711 7.37223 31.4365 7.04722 31.4365 6.70834V3.51389C31.4365 3.175 31.5711 2.85 31.8107 2.61037C32.0504 2.37074 32.3754 2.23611 32.7143 2.23611C33.0531 2.23611 33.3781 2.37074 33.6178 2.61037C33.8574 2.85 33.992 3.175 33.992 3.51389V6.70834C33.992 7.04722 33.8574 7.37223 33.6178 7.61186C33.3781 7.85149 33.0531 7.98611 32.7143 7.98611ZM13.5476 43.7639C13.2087 43.7639 12.8837 43.6293 12.6441 43.3896C12.4044 43.15 12.2698 42.825 12.2698 42.4861V39.2917C12.2698 38.9528 12.4044 38.6278 12.6441 38.3881C12.8837 38.1485 13.2087 38.0139 13.5476 38.0139C13.8865 38.0139 14.2115 38.1485 14.4511 38.3881C14.6907 38.6278 14.8254 38.9528 14.8254 39.2917V42.4861C14.8254 42.825 14.6907 43.15 14.4511 43.3896C14.2115 43.6293 13.8865 43.7639 13.5476 43.7639ZM19.9365 43.7639C19.5976 43.7639 19.2726 43.6293 19.0329 43.3896C18.7933 43.15 18.6587 42.825 18.6587 42.4861V39.2917C18.6587 38.9528 18.7933 38.6278 19.0329 38.3881C19.2726 38.1485 19.5976 38.0139 19.9365 38.0139C20.2754 38.0139 20.6004 38.1485 20.84 38.3881C21.0796 38.6278 21.2143 38.9528 21.2143 39.2917V42.4861C21.2143 42.825 21.0796 43.15 20.84 43.3896C20.6004 43.6293 20.2754 43.7639 19.9365 43.7639ZM26.9643 43.7639C26.6254 43.7639 26.3004 43.6293 26.0607 43.3896C25.8211 43.15 25.6865 42.825 25.6865 42.4861V39.2917C25.6865 38.9528 25.8211 38.6278 26.0607 38.3881C26.3004 38.1485 26.6254 38.0139 26.9643 38.0139C27.3031 38.0139 27.6281 38.1485 27.8678 38.3881C28.1074 38.6278 28.242 38.9528 28.242 39.2917V42.4861C28.242 42.825 28.1074 43.15 27.8678 43.3896C27.6281 43.6293 27.3031 43.7639 26.9643 43.7639ZM32.7143 43.7639C32.3754 43.7639 32.0504 43.6293 31.8107 43.3896C31.5711 43.15 31.4365 42.825 31.4365 42.4861V39.2917C31.4365 38.9528 31.5711 38.6278 31.8107 38.3881C32.0504 38.1485 32.3754 38.0139 32.7143 38.0139C33.0531 38.0139 33.3781 38.1485 33.6178 38.3881C33.8574 38.6278 33.992 38.9528 33.992 39.2917V42.4861C33.992 42.825 33.8574 43.15 33.6178 43.3896C33.3781 43.6293 33.0531 43.7639 32.7143 43.7639ZM6.06939 15.0139H2.87495C2.53606 15.0139 2.21105 14.8793 1.97142 14.6396C1.73179 14.4 1.59717 14.075 1.59717 13.7361C1.59717 13.3972 1.73179 13.0722 1.97142 12.8326C2.21105 12.593 2.53606 12.4583 2.87495 12.4583H6.06939C6.40828 12.4583 6.73329 12.593 6.97292 12.8326C7.21254 13.0722 7.34717 13.3972 7.34717 13.7361C7.34717 14.075 7.21254 14.4 6.97292 14.6396C6.73329 14.8793 6.40828 15.0139 6.06939 15.0139ZM6.06939 22.0417H2.87495C2.53606 22.0417 2.21105 21.907 1.97142 21.6674C1.73179 21.4278 1.59717 21.1028 1.59717 20.7639C1.59717 20.425 1.73179 20.1 1.97142 19.8604C2.21105 19.6207 2.53606 19.4861 2.87495 19.4861H6.06939C6.40828 19.4861 6.73329 19.6207 6.97292 19.8604C7.21254 20.1 7.34717 20.425 7.34717 20.7639C7.34717 21.1028 7.21254 21.4278 6.97292 21.6674C6.73329 21.907 6.40828 22.0417 6.06939 22.0417ZM6.06939 28.4306H2.87495C2.53606 28.4306 2.21105 28.2959 1.97142 28.0563C1.73179 27.8167 1.59717 27.4917 1.59717 27.1528C1.59717 26.8139 1.73179 26.4889 1.97142 26.2493C2.21105 26.0096 2.53606 25.875 2.87495 25.875H6.06939C6.40828 25.875 6.73329 26.0096 6.97292 26.2493C7.21254 26.4889 7.34717 26.8139 7.34717 27.1528C7.34717 27.4917 7.21254 27.8167 6.97292 28.0563C6.73329 28.2959 6.40828 28.4306 6.06939 28.4306ZM6.06939 34.1806H2.87495C2.53606 34.1806 2.21105 34.0459 1.97142 33.8063C1.73179 33.5667 1.59717 33.2417 1.59717 32.9028C1.59717 32.5639 1.73179 32.2389 1.97142 31.9993C2.21105 31.7596 2.53606 31.625 2.87495 31.625H6.06939C6.40828 31.625 6.73329 31.7596 6.97292 31.9993C7.21254 32.2389 7.34717 32.5639 7.34717 32.9028C7.34717 33.2417 7.21254 33.5667 6.97292 33.8063C6.73329 34.0459 6.40828 34.1806 6.06939 34.1806Z" fill="black"/>
</svg>
