<svg width="25" height="25" viewBox="0 0 25 25" fill="none" xmlns="http://www.w3.org/2000/svg">
<path d="M9.07701 9.94925H4.17103C3.92645 9.94925 3.67167 9.96962 3.42708 9.94313C3.49842 9.95332 3.5718 9.96351 3.64313 9.97166C3.57791 9.96147 3.5188 9.94721 3.45766 9.92275C3.52288 9.94925 3.5881 9.97778 3.65333 10.0043C3.59626 9.97778 3.54326 9.94721 3.49231 9.90849L3.6574 10.0369C3.61664 10.0022 3.57995 9.96555 3.5453 9.92479L3.67371 10.0899C3.63498 10.0389 3.60441 9.98797 3.57791 9.92887C3.60441 9.99408 3.63294 10.0593 3.65944 10.1245C3.63498 10.0634 3.61868 10.0043 3.61052 9.93906C3.62071 10.0104 3.6309 10.0837 3.63906 10.1551C3.61868 9.95332 3.63294 9.74546 3.63294 9.5437V5.16629C3.63294 4.92174 3.61256 4.667 3.63906 4.42246C3.62887 4.49378 3.61868 4.56715 3.61052 4.63847C3.62071 4.57326 3.63498 4.51416 3.65944 4.45302C3.63294 4.51824 3.60441 4.58345 3.57791 4.64866C3.60441 4.5916 3.63498 4.53862 3.67371 4.48767L3.5453 4.65274C3.57995 4.61198 3.61664 4.5753 3.6574 4.54065L3.49231 4.66904C3.54326 4.63032 3.59422 4.59975 3.65333 4.57326C3.5881 4.59975 3.52288 4.62828 3.45766 4.65478C3.5188 4.63032 3.57791 4.61402 3.64313 4.60587C3.5718 4.61606 3.49842 4.62625 3.42708 4.6344C3.62887 4.61402 3.83676 4.62828 4.03855 4.62828H8.41663C8.66121 4.62828 8.91599 4.6079 9.16057 4.6344C9.08924 4.62421 9.01586 4.61402 8.94452 4.60587C9.00975 4.61606 9.06885 4.63032 9.13 4.65478C9.06478 4.62828 8.99956 4.59975 8.93433 4.57326C8.9914 4.59975 9.0444 4.63032 9.09535 4.66904L8.93026 4.54065C8.97102 4.5753 9.00771 4.61198 9.04236 4.65274L8.91395 4.48767C8.95268 4.53862 8.98325 4.58956 9.00975 4.64866C8.98325 4.58345 8.95471 4.51824 8.92822 4.45302C8.95268 4.51416 8.96898 4.57326 8.97714 4.63847C8.96694 4.56715 8.95675 4.49378 8.9486 4.42246C8.96898 4.62421 8.95471 4.83207 8.95471 5.03383V9.41124C8.95471 9.65579 8.9751 9.91053 8.9486 10.1551C8.95879 10.0837 8.96898 10.0104 8.97714 9.93906C8.96694 10.0043 8.95268 10.0634 8.92822 10.1245C8.95471 10.0593 8.98325 9.99408 9.00975 9.92887C8.98325 9.98593 8.95268 10.0389 8.91395 10.0899L9.04236 9.92479C9.00771 9.96555 8.97102 10.0022 8.93026 10.0369L9.09535 9.90849C9.0444 9.94721 8.99344 9.97778 8.93433 10.0043C8.99956 9.97778 9.06478 9.94925 9.13 9.92275C9.06885 9.94721 9.00975 9.96351 8.94452 9.97166C9.01586 9.96147 9.08924 9.95128 9.16057 9.94313C9.13408 9.94721 9.10554 9.94925 9.07701 9.94925C8.86503 9.95332 8.65102 10.0369 8.50019 10.1877C8.35956 10.3283 8.25153 10.5606 8.26172 10.7644C8.2821 11.1985 8.62045 11.5898 9.07701 11.5796C9.4765 11.5714 9.85968 11.4226 10.143 11.1373C10.4202 10.8602 10.5669 10.4893 10.5832 10.1C10.5853 10.0328 10.5832 9.96759 10.5832 9.90034V5.33136C10.5832 5.06032 10.5873 4.78928 10.5832 4.51824C10.5751 3.96393 10.2714 3.4035 9.75573 3.16507C9.52745 3.0591 9.32159 3.00204 9.06478 3H3.55345C3.14173 3 2.73817 3.14673 2.44467 3.44222C2.14912 3.73772 2.00237 4.13919 2.00237 4.55492V10.0634C2.00441 10.3181 2.06352 10.528 2.16747 10.7542C2.40594 11.2698 2.96645 11.5735 3.52084 11.5816C4.33613 11.5918 5.15141 11.5816 5.9667 11.5816H9.07497C9.50096 11.5816 9.91064 11.2066 9.89025 10.7664C9.87395 10.3222 9.53561 9.94925 9.07701 9.94925ZM9.07701 13.3933H3.77154C3.68797 13.3933 3.60441 13.3913 3.52084 13.3933C2.86046 13.4035 2.30607 13.8111 2.0839 14.4286C1.9718 14.7383 2.00441 15.1092 2.00441 15.4353V20.4281C2.00441 20.852 2.16339 21.282 2.48543 21.5694C2.78912 21.8404 3.15804 21.9749 3.56364 21.9749H8.98733C9.27675 21.9749 9.54783 21.9219 9.80873 21.7854C10.2959 21.5327 10.5832 20.9906 10.5873 20.4526V15.5331C10.5873 15.2967 10.6036 15.0522 10.5812 14.8158C10.5486 14.4408 10.408 14.076 10.1246 13.8151C9.83522 13.5482 9.47446 13.4015 9.07701 13.3933C8.65102 13.3851 8.24134 13.7744 8.26172 14.2085C8.2821 14.6568 8.62045 15.0134 9.07701 15.0236C9.10554 15.0236 9.13408 15.0257 9.16261 15.0297C9.09128 15.0195 9.0179 15.0094 8.94656 15.0012C9.01178 15.0114 9.07089 15.0257 9.13204 15.0501C9.06682 15.0236 9.00159 14.9951 8.93637 14.9686C8.99344 14.9951 9.04643 15.0257 9.09739 15.0644L8.93229 14.936C8.97306 14.9706 9.00975 15.0073 9.0444 15.0481L8.91599 14.883C8.95471 14.934 8.98529 14.9849 9.01178 15.044C8.98529 14.9788 8.95675 14.9136 8.93026 14.8484C8.95471 14.9095 8.97102 14.9686 8.97917 15.0338C8.96898 14.9625 8.95879 14.8891 8.95064 14.8178C8.97102 15.0195 8.95675 15.2274 8.95675 15.4292V19.8066C8.95675 20.0511 8.97713 20.3059 8.95064 20.5504C8.96083 20.4791 8.97102 20.4057 8.97917 20.3344C8.96898 20.3996 8.95471 20.4587 8.93026 20.5198C8.95675 20.4546 8.98529 20.3894 9.01178 20.3242C8.98529 20.3813 8.95471 20.4342 8.91599 20.4852L9.0444 20.3201C9.00975 20.3609 8.97306 20.3976 8.93229 20.4322L9.09739 20.3038C9.04643 20.3425 8.99548 20.3731 8.93637 20.3996C9.00159 20.3731 9.06682 20.3446 9.13204 20.3181C9.07089 20.3425 9.01178 20.3588 8.94656 20.367C9.0179 20.3568 9.09128 20.3466 9.16261 20.3385C8.96083 20.3588 8.75293 20.3446 8.55115 20.3446H4.17307C3.92848 20.3446 3.67371 20.365 3.42912 20.3385C3.50046 20.3487 3.57384 20.3588 3.64517 20.367C3.57995 20.3568 3.52084 20.3425 3.4597 20.3181C3.52492 20.3446 3.59014 20.3731 3.65536 20.3996C3.59829 20.3731 3.5453 20.3425 3.49434 20.3038L3.65944 20.4322C3.61868 20.3976 3.58199 20.3609 3.54734 20.3201L3.67575 20.4852C3.63702 20.4342 3.60645 20.3833 3.57995 20.3242C3.60645 20.3894 3.63498 20.4546 3.66148 20.5198C3.63702 20.4587 3.62071 20.3996 3.61256 20.3344C3.62275 20.4057 3.63294 20.4791 3.6411 20.5504C3.62071 20.3487 3.63498 20.1408 3.63498 19.939V15.5616C3.63498 15.3171 3.6146 15.0623 3.6411 14.8178C3.63091 14.8891 3.62071 14.9625 3.61256 15.0338C3.62275 14.9686 3.63702 14.9095 3.66148 14.8484C3.63498 14.9136 3.60645 14.9788 3.57995 15.044C3.60645 14.9869 3.63702 14.934 3.67575 14.883L3.54734 15.0481C3.58199 15.0073 3.61868 14.9706 3.65944 14.936L3.49434 15.0644C3.5453 15.0257 3.59626 14.9951 3.65536 14.9686C3.59014 14.9951 3.52492 15.0236 3.4597 15.0501C3.52084 15.0257 3.57995 15.0094 3.64517 15.0012C3.57384 15.0114 3.50046 15.0216 3.42912 15.0297C3.63091 15.0094 3.8388 15.0236 4.04059 15.0236H9.07905C9.50503 15.0236 9.91471 14.6486 9.89433 14.2085C9.87395 13.7662 9.53561 13.3933 9.07701 13.3933ZM12.7336 6.226H20.1425C20.4849 6.226 20.8273 6.23211 21.1697 6.226H21.184C21.61 6.226 22.0197 5.85102 21.9993 5.41084C21.9789 4.96861 21.6405 4.59568 21.184 4.59568H13.7751C13.4327 4.59568 13.0902 4.58956 12.7478 4.59568H12.7336C12.3076 4.59568 11.8979 4.97065 11.9183 5.41084C11.9366 5.85102 12.277 6.226 12.7336 6.226ZM17.984 8.35357H12.7315C12.3055 8.35357 11.8959 8.72854 11.9162 9.16873C11.9366 9.61095 12.275 9.98389 12.7315 9.98389H17.984C18.41 9.98389 18.8197 9.60892 18.7993 9.16873C18.7809 8.7265 18.4426 8.35357 17.984 8.35357ZM12.7336 16.6193H20.1425C20.4849 16.6193 20.8273 16.6254 21.1697 16.6193H21.184C21.61 16.6193 22.0197 16.2443 21.9993 15.8041C21.9789 15.3619 21.6405 14.989 21.184 14.989H13.7751C13.4327 14.989 13.0902 14.9829 12.7478 14.989H12.7336C12.3076 14.989 11.8979 15.3639 11.9183 15.8041C11.9366 16.2464 12.277 16.6193 12.7336 16.6193ZM17.984 18.7469H12.7315C12.3055 18.7469 11.8959 19.1218 11.9162 19.562C11.9366 20.0043 12.275 20.3772 12.7315 20.3772H17.984C18.41 20.3772 18.8197 20.0022 18.7993 19.562C18.7809 19.1218 18.4426 18.7469 17.984 18.7469Z" fill="#91969A"/>
</svg>
