<svg width="24" height="24" viewBox="0 0 24 24" fill="none" xmlns="http://www.w3.org/2000/svg">
<path d="M6.55272 22.596C6.53997 22.596 6.52722 22.5952 6.51447 22.5937L2.18997 22.1617C2.18472 22.1617 2.17947 22.161 2.17422 22.1602L1.21047 22.0635C1.19622 22.0627 1.18347 22.0605 1.16997 22.0575H1.17072C1.09197 22.041 1.02297 21.999 0.970467 21.9427C0.970467 21.9427 0.970467 21.942 0.969717 21.9412C0.969717 21.9412 0.969717 21.9412 0.968967 21.9405C0.968967 21.9405 0.968967 21.9405 0.968217 21.9397C0.943467 21.912 0.922467 21.8797 0.906717 21.8452C0.906717 21.8445 0.906717 21.8445 0.906717 21.8445L0.905967 21.8437C0.881967 21.789 0.869967 21.7282 0.874467 21.6645L1.15722 17.3197C1.16322 17.2282 1.20297 17.1427 1.26672 17.0782L9.11397 9.28046C8.72097 7.28921 9.18522 5.23721 10.4017 3.62171C10.5277 3.45446 10.7625 3.42446 10.9267 3.54746C11.0925 3.67196 11.1255 3.90671 11.001 4.07246C9.87522 5.56721 9.47022 7.47971 9.88947 9.31871C9.91797 9.44471 9.87972 9.57746 9.78822 9.66821L1.89597 17.5102L1.64622 21.354L2.07297 21.3967L10.5285 12.9412C10.5997 12.87 10.638 12.7755 10.638 12.6757C10.638 12.576 10.599 12.4822 10.5285 12.411C10.3867 12.2692 10.14 12.2692 9.99822 12.411L3.19647 19.212C3.05022 19.3582 2.81247 19.3582 2.66622 19.212C2.51997 19.0657 2.51997 18.828 2.66622 18.6817L9.46797 11.8807C9.90597 11.4427 10.6207 11.4427 11.0587 11.8807C11.271 12.0922 11.388 12.3742 11.388 12.6757C11.388 12.9757 11.271 13.2592 11.0587 13.4722L3.03747 21.4927L6.22047 21.8107L6.44472 19.7932C6.45447 19.7092 6.49197 19.6297 6.55272 19.5697L8.40897 17.7127C8.47947 17.6422 8.57472 17.6032 8.67447 17.6032H10.11L13.6845 14.0287C13.7865 13.9275 13.9335 13.893 14.0692 13.9387C16.3822 14.7127 18.8887 14.1292 20.6077 12.4102C23.0925 9.92471 23.0925 5.87921 20.6077 3.39446C18.375 1.16171 14.7922 0.907462 12.276 2.80046C12.1095 2.92571 11.8747 2.89196 11.751 2.72621C11.6265 2.56046 11.6595 2.32571 11.8252 2.20121C14.6415 0.0839623 18.6442 0.369712 21.1387 2.86421C23.9167 5.64221 23.9167 10.1617 21.1387 12.9412C19.2727 14.8072 16.5795 15.4815 14.055 14.721L10.5322 18.2437C10.4617 18.3142 10.3665 18.3532 10.2667 18.3532H8.83122L7.17822 20.007L6.92772 22.263C6.90372 22.4535 6.74097 22.596 6.55272 22.596ZM18.219 8.40371C17.547 8.40371 16.875 8.14796 16.3627 7.63721C15.867 7.14146 15.594 6.48221 15.594 5.78096C15.594 5.07896 15.867 4.42046 16.3627 3.92396C17.3865 2.90321 19.0515 2.90171 20.0752 3.92396C21.0975 4.94771 21.0975 6.61271 20.0752 7.63646C19.5637 8.14796 18.891 8.40371 18.219 8.40371ZM16.893 7.10696C17.6242 7.83821 18.8145 7.83746 19.545 7.10696C20.2755 6.37571 20.2755 5.18546 19.545 4.45496C18.8122 3.72296 17.6227 3.72371 16.893 4.45496C16.1625 5.18546 16.1625 6.37571 16.893 7.10696Z" fill="#91969A"/>
<path d="M2.21259 22.1625C2.11659 22.1625 2.02059 22.1257 1.94709 22.053C1.80084 21.9067 1.80084 21.669 1.94709 21.5227L10.5286 12.9412C10.5998 12.87 10.6381 12.7755 10.6381 12.6757C10.6381 12.576 10.5991 12.4822 10.5286 12.411C10.3823 12.2647 10.1446 12.2647 9.99834 12.411L3.19659 19.212C3.05034 19.3582 2.81259 19.3582 2.66634 19.212C2.52009 19.0657 2.52009 18.828 2.66634 18.6817L9.46809 11.8807C9.90609 11.4427 10.6208 11.4427 11.0588 11.8807C11.2711 12.0922 11.3881 12.3742 11.3881 12.6757C11.3881 12.9757 11.2711 13.2592 11.0588 13.4722L2.47809 22.0522C2.40459 22.1257 2.30859 22.1625 2.21259 22.1625Z" fill="#91969A"/>
</svg>
