<svg width="25" height="25" viewBox="0 0 25 25" fill="none" xmlns="http://www.w3.org/2000/svg">
<path d="M12.5008 8.84778C10.4838 8.84778 8.84863 10.4829 8.84863 12.5C8.84863 14.517 10.4838 16.1521 12.5008 16.1521C14.5178 16.1521 16.153 14.517 16.153 12.5C16.153 10.4829 14.5178 8.84778 12.5008 8.84778ZM10.6747 12.5C10.6747 11.4914 11.4923 10.6739 12.5008 10.6739C13.5093 10.6739 14.3269 11.4914 14.3269 12.5C14.3269 13.5085 13.5093 14.326 12.5008 14.326C11.4923 14.326 10.6747 13.5085 10.6747 12.5Z" fill="#79879A"/>
<path d="M17.2807 5.923C16.5776 6.05068 15.9037 5.58663 15.7754 4.88653L15.3011 2.30119C15.254 2.04428 15.0558 1.84111 14.7992 1.78676C14.0488 1.62782 13.2794 1.547 12.5 1.547C11.72 1.547 10.9502 1.62793 10.1994 1.78705C9.94273 1.84145 9.74449 2.04473 9.69747 2.30176L9.22451 4.88664C9.21193 4.95537 9.19371 5.02307 9.17006 5.08897C8.92955 5.75913 8.18896 6.10825 7.5159 5.86876L5.0334 4.98494C4.78666 4.89708 4.51107 4.96609 4.3354 5.15969C3.29661 6.30458 2.50933 7.6555 2.03141 9.12722C1.95079 9.37551 2.02853 9.64771 2.2283 9.81658L4.2405 11.5176C4.29404 11.5629 4.34382 11.6125 4.3893 11.6658C4.85192 12.2083 4.78529 13.0215 4.24048 13.4821L2.2283 15.1831C2.02853 15.352 1.95079 15.6242 2.03141 15.8725C2.50933 17.3442 3.29661 18.6952 4.3354 19.8401C4.51107 20.0337 4.78666 20.1027 5.0334 20.0149L7.51601 19.1309C7.5821 19.1075 7.65008 19.0892 7.71922 19.0766C8.42235 18.949 9.09631 19.413 9.22453 20.1131L9.69747 22.6979C9.74449 22.9551 9.94273 23.1583 10.1994 23.2127C10.9502 23.3718 11.72 23.4527 12.5 23.4527C13.2794 23.4527 14.0488 23.3719 14.7992 23.2129C15.0558 23.1587 15.254 22.9554 15.3011 22.6985L15.7754 20.1133C15.788 20.0443 15.8062 19.9767 15.8299 19.9108C16.0704 19.2406 16.811 18.8915 17.4841 19.1309L19.9665 20.0149C20.2134 20.1027 20.4889 20.0337 20.6646 19.8401C21.7034 18.6952 22.4907 17.3442 22.9685 15.8725C23.0493 15.6242 22.9715 15.352 22.7717 15.1831L20.7595 13.4821C20.7058 13.4368 20.6562 13.3872 20.6107 13.3339C20.148 12.7914 20.2146 11.9782 20.7595 11.5176L22.7717 9.81658C22.9715 9.64771 23.0493 9.37551 22.9685 9.12722C22.4907 7.6555 21.7034 6.30458 20.6646 5.15969C20.4889 4.96609 20.2134 4.89708 19.9665 4.98494L17.4839 5.8688C17.4178 5.8923 17.3499 5.91045 17.2807 5.923ZM5.19315 6.98018L6.90344 7.58907C8.51943 8.16408 10.3063 7.32876 10.8888 5.70582C10.946 5.54635 10.9902 5.38206 11.0208 5.2153L11.3448 3.44463C11.7252 3.39713 12.1107 3.37309 12.5 3.37309C12.8889 3.37309 13.2742 3.3971 13.6543 3.44452L13.9793 5.21601C14.2905 6.9136 15.9196 8.0261 17.607 7.71972C17.7732 7.68954 17.9371 7.64578 18.0964 7.58912L19.8069 6.98018C20.2725 7.58932 20.6596 8.25387 20.9582 8.95852L19.5804 10.1231C18.2642 11.2361 18.1015 13.2057 19.2212 14.5188C19.331 14.6476 19.4513 14.7673 19.5806 14.8766L20.9582 16.0412C20.6596 16.7458 20.2725 17.4103 19.8069 18.0195L18.0962 17.4105C16.4803 16.8355 14.6936 17.6709 14.1111 19.2939C14.0539 19.4533 14.0097 19.6177 13.9792 19.7844L13.6543 21.5552C13.2742 21.6026 12.8889 21.6266 12.5 21.6266C12.1107 21.6266 11.7252 21.6026 11.3448 21.555L11.0207 19.7842C10.7098 18.0863 9.08051 16.9735 7.39297 17.2799C7.22674 17.3102 7.06282 17.3539 6.90355 17.4107L5.19315 18.0195C4.72738 17.4103 4.34033 16.7458 4.04182 16.0412L5.41947 14.8766C6.73582 13.7636 6.89854 11.794 5.77877 10.4809C5.66891 10.3521 5.54867 10.2324 5.41942 10.1231L4.04182 8.95852C4.34033 8.25387 4.72738 7.58932 5.19315 6.98018Z" fill="#79879A"/>
</svg>
