<svg width="32" height="32" viewBox="0 0 32 32" fill="none" xmlns="http://www.w3.org/2000/svg">
<path d="M26 5.84023C26.0985 5.8407 26.1962 5.82148 26.2872 5.7837C26.3782 5.74592 26.4608 5.69035 26.53 5.62023L27.72 4.43023C27.7937 4.36157 27.8528 4.27877 27.8938 4.18677C27.9348 4.09477 27.9568 3.99546 27.9586 3.89476C27.9604 3.79405 27.9418 3.69402 27.9041 3.60064C27.8664 3.50725 27.8103 3.42241 27.739 3.3512C27.6678 3.27998 27.583 3.22383 27.4896 3.18611C27.3962 3.14839 27.2962 3.12987 27.1955 3.13164C27.0948 3.13342 26.9955 3.15546 26.9035 3.19645C26.8115 3.23745 26.7287 3.29655 26.66 3.37023L25.48 4.56023C25.4092 4.62918 25.353 4.7116 25.3146 4.80262C25.2762 4.89365 25.2564 4.99144 25.2564 5.09023C25.2564 5.18903 25.2762 5.28682 25.3146 5.37785C25.353 5.46887 25.4092 5.55129 25.48 5.62023C25.547 5.69052 25.6277 5.74631 25.7172 5.78415C25.8066 5.82199 25.9029 5.84108 26 5.84023ZM5.46 5.62023C5.53042 5.69156 5.61459 5.74785 5.70742 5.78566C5.80024 5.82348 5.89978 5.84205 6 5.84023C6.09879 5.84246 6.19695 5.82405 6.28821 5.78617C6.37948 5.74828 6.46183 5.69177 6.53 5.62023C6.60076 5.55129 6.65699 5.46887 6.69539 5.37785C6.73379 5.28682 6.75357 5.18903 6.75357 5.09023C6.75357 4.99144 6.73379 4.89365 6.69539 4.80262C6.65699 4.7116 6.60076 4.62918 6.53 4.56023L5.33 3.37023C5.18782 3.23775 4.99978 3.16563 4.80548 3.16906C4.61117 3.17249 4.42579 3.2512 4.28838 3.38861C4.15096 3.52603 4.07225 3.71141 4.06882 3.90571C4.06539 4.10001 4.13752 4.28806 4.27 4.43023L5.46 5.62023ZM16 4.92023C16.1981 4.91764 16.3874 4.8378 16.5275 4.6977C16.6676 4.55761 16.7474 4.36834 16.75 4.17023V2.49023C16.75 2.29132 16.671 2.10056 16.5303 1.9599C16.3897 1.81925 16.1989 1.74023 16 1.74023C15.8011 1.74023 15.6103 1.81925 15.4697 1.9599C15.329 2.10056 15.25 2.29132 15.25 2.49023V4.17023C15.2526 4.36834 15.3324 4.55761 15.4725 4.6977C15.6126 4.8378 15.8019 4.91764 16 4.92023ZM28.21 12.1802L26 7.68023C25.8596 7.38425 25.639 7.1336 25.3632 6.95682C25.0874 6.78003 24.7676 6.6842 24.44 6.68023H7.61C7.28244 6.6842 6.96257 6.78003 6.68678 6.95682C6.411 7.1336 6.19037 7.38425 6.05 7.68023L3.79 12.1802C3.6385 12.4647 3.56946 12.7858 3.59066 13.1073C3.61187 13.4289 3.72247 13.7382 3.91 14.0002L14.56 29.5002C14.7195 29.7353 14.9341 29.9278 15.1851 30.0609C15.4361 30.1939 15.7159 30.2635 16 30.2635C16.2841 30.2635 16.5639 30.1939 16.8149 30.0609C17.0659 29.9278 17.2805 29.7353 17.44 29.5002L28.09 14.0002C28.2775 13.7382 28.3881 13.4289 28.4093 13.1073C28.4305 12.7858 28.3615 12.4647 28.21 12.1802ZM18.3 8.18023L19.3 12.2502H12.74L13.74 8.18023H18.3ZM16 27.1202L12.74 13.7902H19.26L16 27.1202ZM11.2 13.7902L14.3 26.4702L5.61 13.7902H11.2ZM20.8 13.7902H26.39L17.7 26.4702L20.8 13.7902ZM24.61 8.36023L26.61 12.2902H20.8L19.8 8.22023H24.35C24.4027 8.21125 24.457 8.22015 24.5041 8.24551C24.5512 8.27088 24.5885 8.31126 24.61 8.36023ZM7.39 8.36023C7.40927 8.31818 7.44029 8.28259 7.47933 8.25775C7.51836 8.23291 7.56373 8.21988 7.61 8.22023H12.16L11.16 12.2902H5.41L7.39 8.36023Z" fill="#4D4D4F"/>
</svg>
