<svg width="38" height="38" viewBox="0 0 38 38" fill="none" xmlns="http://www.w3.org/2000/svg">
<g clip-path="url(#clip0_106_294)">
<path d="M13.2989 36.8042C12.9871 36.8047 12.6782 36.7436 12.39 36.6244C12.1018 36.5052 11.8401 36.3302 11.6198 36.1095L1.89059 26.3803C1.66929 26.1604 1.49384 25.8987 1.37439 25.6105C1.25494 25.3223 1.19387 25.0132 1.19471 24.7012C1.19471 24.0659 1.44171 23.4698 1.89059 23.0209L23.0293 1.88219C23.4751 1.43782 24.0789 1.18829 24.7084 1.18829C25.3379 1.18829 25.9417 1.43782 26.3875 1.88219L36.1167 11.6126C37.043 12.5388 37.043 14.0458 36.1167 14.972L14.978 36.1095C14.5161 36.5726 13.9069 36.8042 13.2989 36.8042ZM24.7084 3.5625L3.56971 24.7012L13.3001 34.4316L34.4376 13.2917L24.7084 3.5625Z" fill="black"/>
<path d="M23.8926 19.6911C23.5808 19.6917 23.2719 19.6306 22.9837 19.5114C22.6956 19.3921 22.4338 19.2171 22.2135 18.9964L19.0037 15.7866C18.5587 15.3411 18.3088 14.7372 18.3088 14.1075C18.3088 13.4778 18.5587 12.8739 19.0037 12.4284L22.2135 9.21738C22.6595 8.77293 23.2635 8.52338 23.8932 8.52338C24.5229 8.52338 25.1269 8.77293 25.5729 9.21738L28.7827 12.4284C29.709 13.3546 29.709 14.8604 28.7827 15.7866L25.5729 18.9964C25.111 19.4596 24.5018 19.6911 23.8926 19.6911ZM23.8938 10.8965L20.6828 14.1075L23.8938 17.3185L27.1036 14.1075L23.8938 10.8965ZM14.1147 29.4702C13.8029 29.4707 13.494 29.4096 13.2058 29.2904C12.9177 29.1712 12.6559 28.9962 12.4356 28.7755L9.2258 25.5645C9.00434 25.3447 8.82878 25.083 8.70932 24.7948C8.58986 24.5065 8.52888 24.1974 8.52992 23.8854C8.52992 23.2513 8.77692 22.6551 9.2258 22.2063L12.4356 18.9964C12.8811 18.5515 13.4851 18.3016 14.1147 18.3016C14.7444 18.3016 15.3483 18.5515 15.7939 18.9964L19.0037 22.2063C19.4525 22.6551 19.6995 23.2513 19.6995 23.8854C19.6995 24.5207 19.4525 25.1168 19.0037 25.5657L15.7939 28.7755C15.3307 29.2386 14.7215 29.4702 14.1147 29.4702ZM14.1147 27.0964L17.3245 23.8854L14.1147 20.6756L10.9049 23.8854L14.1147 27.0964ZM21.4487 35.1761C21.1367 35.177 20.8277 35.1159 20.5394 34.9964C20.2512 34.877 19.9895 34.7015 19.7696 34.4802L16.5099 31.2206L31.229 16.5027L34.4887 19.7624C35.4149 20.6886 35.4149 22.1944 34.4887 23.1206L23.129 34.4802C22.9093 34.7012 22.6481 34.8765 22.3603 34.9959C22.0725 35.1153 21.7639 35.1766 21.4523 35.1761H21.4487ZM19.867 31.2206L21.4487 32.8023L32.8072 21.4415L31.2266 19.8609L19.867 31.2206Z" fill="black"/>
</g>
<defs>
<clipPath id="clip0_106_294">
<rect width="38" height="38" fill="white"/>
</clipPath>
</defs>
</svg>
