<svg width="32" height="32" viewBox="0 0 32 32" fill="none" xmlns="http://www.w3.org/2000/svg">
<g clip-path="url(#clip0_54_222)">
<path d="M18 28H14" stroke="#4D4D4F" stroke-width="2" stroke-linecap="round" stroke-linejoin="round"/>
<path d="M15.3713 2.47053C12.9972 4.3723 5.05676 11.9717 12 24.0002H20C26.7988 11.9802 18.9745 4.38305 16.6253 2.47458C16.4483 2.33063 16.2272 2.25172 15.999 2.25098C15.7708 2.25025 15.5493 2.32773 15.3713 2.47053Z" stroke="#4D4D4F" stroke-width="2" stroke-linecap="round" stroke-linejoin="round"/>
<path d="M9.23331 13.9204L5.31454 18.6229C5.21666 18.7404 5.14701 18.8787 5.11096 19.0273C5.07491 19.1759 5.07341 19.3308 5.10658 19.48L6.65194 26.4342C6.68878 26.5999 6.76723 26.7536 6.87988 26.8807C6.99254 27.0077 7.13571 27.104 7.29587 27.1604C7.45604 27.2168 7.62794 27.2315 7.79536 27.2031C7.96279 27.1747 8.12022 27.1042 8.25282 26.9981L12 24.0004M22.6914 13.8301L26.6854 18.6229C26.7833 18.7404 26.853 18.8787 26.889 19.0273C26.9251 19.1759 26.9266 19.3308 26.8934 19.48L25.348 26.4342C25.3112 26.5999 25.2327 26.7536 25.1201 26.8807C25.0074 27.0077 24.8643 27.104 24.7041 27.1604C24.5439 27.2168 24.372 27.2315 24.2046 27.2031C24.0372 27.1747 23.8798 27.1042 23.7472 26.9981L20 24.0004" stroke="#4D4D4F" stroke-width="2" stroke-linecap="round" stroke-linejoin="round"/>
<path d="M16 13.5C16.8284 13.5 17.5 12.8284 17.5 12C17.5 11.1716 16.8284 10.5 16 10.5C15.1716 10.5 14.5 11.1716 14.5 12C14.5 12.8284 15.1716 13.5 16 13.5Z" fill="#4D4D4F"/>
</g>
<defs>
<clipPath id="clip0_54_222">
<rect width="32" height="32" fill="white"/>
</clipPath>
</defs>
</svg>
