<svg width="22" height="22" viewBox="0 0 22 22" fill="none" xmlns="http://www.w3.org/2000/svg">
<path d="M11 21.4564C5.22495 21.4564 0.543701 16.7752 0.543701 11.0002C0.543701 5.22519 5.22495 0.543945 11 0.543945C16.775 0.543945 21.4562 5.22519 21.4562 11.0002C21.4562 16.7752 16.775 21.4564 11 21.4564ZM11 1.68145C5.8812 1.68145 1.6812 5.88144 1.6812 11.0002C1.6812 16.1189 5.8812 20.3189 11 20.3189C16.1187 20.3189 20.3187 16.1189 20.3187 11.0002C20.3187 5.88144 16.1187 1.68145 11 1.68145Z" fill="#0063EF"/>
<path d="M10.7812 16.9939L9.99365 16.1626L15.1124 11.0001L9.99365 5.83761L10.7812 5.00635L16.7749 11.0001L10.7812 16.9939Z" fill="#0063EF"/>
<path d="M15.9436 11.6127H5.4436V10.3877H15.9436V11.6127Z" fill="#0063EF"/>
</svg>
