<svg width="25" height="25" viewBox="0 0 25 25" fill="none" xmlns="http://www.w3.org/2000/svg">
<path d="M22.212 6.77748C22.2137 6.76173 22.2097 6.74589 22.2008 6.73278V6.7216C22.1831 6.67475 22.1606 6.62982 22.1338 6.58749C22.1338 6.58452 22.1326 6.58168 22.1305 6.57959C22.1284 6.57749 22.1256 6.57631 22.1226 6.57631C22.1009 6.53273 22.0656 6.49741 22.022 6.47573C22.022 6.46455 22.022 6.46455 22.0108 6.46455C21.979 6.43421 21.9408 6.41131 21.8991 6.3975L21.7985 6.36397H21.7873L11.8631 3.05588L11.796 3.03353C11.7428 3.01167 11.6859 3.00029 11.6284 3H11.606C11.5485 3.00029 11.4916 3.01167 11.4384 3.03353L11.3713 3.05588L6.45388 4.69875L6.37565 4.7211L1.44704 6.36397L1.37999 6.38632C1.32469 6.40558 1.27211 6.43188 1.22352 6.46455C1.19216 6.48475 1.16549 6.51143 1.14529 6.54278C1.13411 6.54278 1.12294 6.55396 1.12294 6.57631C1.09823 6.59746 1.07905 6.62431 1.06706 6.65454C1.02281 6.73297 0.999708 6.82155 1 6.91159V18.0876C1.00087 18.2038 1.03793 18.3168 1.10603 18.4109C1.17414 18.5051 1.2699 18.5757 1.37999 18.6128L11.4048 21.9545C11.4093 21.9587 11.4146 21.9619 11.4203 21.9638C11.4261 21.9657 11.4323 21.9664 11.4384 21.9656C11.5534 22.0103 11.681 22.0103 11.796 21.9656L11.8295 21.9545L16.2664 20.4792C16.3436 20.4628 16.4165 20.4302 16.4802 20.3836C16.5439 20.3369 16.597 20.2773 16.636 20.2086C16.675 20.14 16.6991 20.0638 16.7065 19.9852C16.7139 19.9066 16.7046 19.8273 16.6792 19.7526C16.6537 19.6778 16.6127 19.6093 16.5589 19.5516C16.505 19.4938 16.4395 19.4481 16.3667 19.4175C16.2939 19.3869 16.2155 19.3721 16.1365 19.374C16.0576 19.3759 15.98 19.3946 15.9088 19.4287L12.176 20.6692V10.6667L16.7805 9.12443C16.808 9.12376 16.835 9.11607 16.8587 9.10208L21.1168 7.68273V12.8684C21.1168 13.0166 21.1756 13.1587 21.2804 13.2635C21.3852 13.3683 21.5274 13.4272 21.6756 13.4272C21.8238 13.4272 21.9659 13.3683 22.0707 13.2635C22.1755 13.1587 22.2344 13.0166 22.2344 12.8684V6.91159C22.2324 6.86614 22.2249 6.82111 22.212 6.77748ZM2.1176 7.68273L11.0584 10.6667V20.6692L2.1176 17.6852V7.68273ZM16.6464 8.00684L14.8917 8.58799L11.6172 9.68323L3.31343 6.91159L6.58799 5.81635L8.34262 5.2352L11.6172 4.13995L19.9209 6.91159L16.6464 8.00684Z" fill="#91969A"/>
<path d="M16.6463 8.00687L14.8916 8.58802L6.58789 5.81638L8.34252 5.23523L16.6463 8.00687Z" fill="#91969A"/>
<path d="M24.2547 19.8817L22.3034 18.3595C22.5156 17.9513 22.6278 17.4986 22.6309 17.0385C22.6387 16.3549 22.4115 15.6892 21.9873 15.153C21.5631 14.6168 20.9676 14.2425 20.3005 14.0928C19.6333 13.9431 18.935 14.027 18.3224 14.3306C17.7097 14.6341 17.2199 15.1388 16.9348 15.7603C16.6497 16.3817 16.5867 17.0823 16.7564 17.7446C16.926 18.407 17.3179 18.991 17.8666 19.399C18.4152 19.8069 19.0874 20.0141 19.7705 19.9858C20.4537 19.9575 21.1064 19.6955 21.6194 19.2436L23.5663 20.7702C23.6834 20.8615 23.8319 20.9025 23.9793 20.8843C24.1266 20.8661 24.2607 20.79 24.352 20.673C24.4433 20.5559 24.4843 20.4073 24.4661 20.26C24.4478 20.1127 24.3718 19.9786 24.2547 19.8873V19.8817ZM19.6804 18.8703C19.3179 18.8703 18.9634 18.7628 18.662 18.5613C18.3606 18.3599 18.1256 18.0735 17.987 17.7386C17.8483 17.4036 17.812 17.035 17.8828 16.6794C17.9537 16.3239 18.1283 15.9973 18.3848 15.741C18.6412 15.4847 18.9679 15.3102 19.3235 15.2396C19.6791 15.169 20.0477 15.2055 20.3826 15.3444C20.7175 15.4833 21.0037 15.7184 21.2049 16.02C21.4062 16.3215 21.5135 16.676 21.5133 17.0385C21.5127 17.5244 21.3193 17.9901 20.9757 18.3335C20.6321 18.6769 20.1662 18.87 19.6804 18.8703Z" fill="#91969A"/>
</svg>
