<svg width="32" height="32" viewBox="0 0 32 32" fill="none" xmlns="http://www.w3.org/2000/svg">
<path d="M23.2722 23.0605C21.0274 23.0605 18.9662 22.0026 17.6172 20.1589C17.2917 19.7129 17.388 19.0872 17.8347 18.7611C18.2787 18.4336 18.9037 18.5326 19.2318 18.9779C20.1992 20.3014 21.6719 21.0605 23.2722 21.0605C26.0625 21.0605 28.3334 18.7904 28.3334 16C28.3334 13.2096 26.0625 10.9395 23.2722 10.9395C21.3789 10.9395 19.5977 11.9479 18.6237 13.5716L15.0925 19.457C13.7578 21.6797 11.3203 23.0605 8.72788 23.0605C4.83466 23.0605 1.66669 19.8932 1.66669 16C1.66669 12.1068 4.83466 8.93945 8.72788 8.93945C10.9727 8.93945 13.0339 9.9974 14.3828 11.8411C14.7084 12.2871 14.612 12.9128 14.1654 13.2389C13.7201 13.5645 13.0938 13.4661 12.7682 13.0221C11.8008 11.6986 10.3281 10.9395 8.72788 10.9395C5.93752 10.9395 3.66669 13.2096 3.66669 16C3.66669 18.7904 5.93752 21.0605 8.72788 21.0605C10.6211 21.0605 12.4024 20.0521 13.3763 18.4284L16.9076 12.543C18.2422 10.3203 20.6797 8.93945 23.2722 8.93945C27.1654 8.93945 30.3334 12.1068 30.3334 16C30.3334 19.8932 27.1654 23.0605 23.2722 23.0605Z" fill="#4D4D4F"/>
</svg>
