<svg width="25" height="25" viewBox="0 0 25 25" fill="none" xmlns="http://www.w3.org/2000/svg">
<path d="M12.4692 13.239C15.5792 13.239 18.0733 10.7141 18.0733 7.6349C18.0733 4.55572 15.5792 2 12.4692 2C9.35924 2 6.8651 4.52493 6.8651 7.60411C6.8651 10.6833 9.35924 13.239 12.4692 13.239ZM12.4692 3.47801C14.7478 3.47801 16.5953 5.32551 16.5953 7.60411C16.5953 9.8827 14.7478 11.7302 12.4692 11.7302C10.1906 11.7302 8.34311 9.91349 8.34311 7.6349C8.34311 5.3563 10.1906 3.47801 12.4692 3.47801ZM2.739 22.0147H22.261C22.6613 22.0147 23 21.676 23 21.2757C23 17.3959 19.8284 14.2243 15.9487 14.2243H9.05132C5.17155 14.2243 2 17.3959 2 21.2757C2 21.676 2.33871 22.0147 2.739 22.0147ZM9.05132 15.7023H15.9487C18.7815 15.7023 21.0909 17.7962 21.4604 20.5367H3.53959C3.90909 17.7962 6.21848 15.7023 9.05132 15.7023Z" fill="#91969A"/>
</svg>
