<svg width="32" height="32" viewBox="0 0 32 32" fill="none" xmlns="http://www.w3.org/2000/svg">
<path d="M11 20C14.5899 20 17.5 17.0899 17.5 13.5C17.5 9.91015 14.5899 7 11 7C7.41015 7 4.5 9.91015 4.5 13.5C4.5 17.0899 7.41015 20 11 20Z" stroke="#4D4D4F" stroke-width="2.5" stroke-miterlimit="10"/>
<path d="M19.4266 7.24166C20.3206 6.98977 21.2582 6.93239 22.1763 7.07338C23.0943 7.21437 23.9715 7.55046 24.7488 8.05901C25.526 8.56756 26.1853 9.23677 26.6821 10.0216C27.1789 10.8063 27.5018 11.6885 27.629 12.6086C27.7562 13.5287 27.6848 14.4653 27.4195 15.3555C27.1542 16.2456 26.7012 17.0686 26.0911 17.7689C25.481 18.4693 24.7279 19.0307 23.8825 19.4155C23.0371 19.8003 22.1191 19.9994 21.1903 19.9995C22.9556 19.9983 24.6952 20.4224 26.2618 21.236C27.8284 22.0495 29.176 23.2286 30.1903 24.6734M1.99951 24.6741C3.01468 23.2301 4.36238 22.0516 5.92882 21.238C7.49527 20.4244 9.23448 19.9996 10.9996 19.9995C12.7648 19.9995 14.504 20.4241 16.0705 21.2376C17.637 22.0511 18.9848 23.2295 20.0001 24.6734" stroke="#4D4D4F" stroke-width="2.5" stroke-linecap="round" stroke-linejoin="round"/>
<path d="M2.89295 5.25549C3.21765 5.36921 3.51265 5.55885 3.75504 5.80969C3.99743 6.06053 4.18068 6.36582 4.29057 6.70184C4.34579 6.87329 4.50297 6.99198 4.68139 6.99198C4.85981 6.99198 5.01699 6.87768 5.07222 6.70184C5.1821 6.36582 5.36536 6.06053 5.60775 5.80969C5.85014 5.55885 6.14514 5.36921 6.46984 5.25549C6.55093 5.22584 6.62128 5.17116 6.67141 5.09884C6.72154 5.02653 6.74905 4.94004 6.75021 4.85105C6.75021 4.66641 6.63976 4.50375 6.46984 4.4466C6.14514 4.33288 5.85014 4.14324 5.60775 3.8924C5.36536 3.64156 5.1821 3.33628 5.07222 3.00026C5.01274 2.82881 4.85556 2.71011 4.68139 2.71011C4.50722 2.71011 4.34579 2.82441 4.29057 3.00026C4.18003 3.33591 3.99654 3.64084 3.75425 3.89158C3.51195 4.14233 3.21729 4.3322 2.89295 4.4466C2.81097 4.47495 2.73968 4.52925 2.68917 4.60184C2.63865 4.67442 2.61147 4.7616 2.61147 4.85105C2.61147 4.94049 2.63865 5.02768 2.68917 5.10026C2.73968 5.17284 2.81097 5.22715 2.89295 5.25549ZM4.68139 4.07732C4.8853 4.38066 5.14019 4.64003 5.43331 4.85105C5.14019 5.06206 4.88955 5.32583 4.68139 5.62917C4.47619 5.32669 4.22177 5.06341 3.92948 4.85105C4.22259 4.64147 4.47722 4.37946 4.68139 4.07732ZM18.3645 3.99379H19.5879C19.6972 3.99379 19.802 3.94887 19.8793 3.8689C19.9566 3.78892 20 3.68046 20 3.56736C20 3.45427 19.9566 3.34581 19.8793 3.26583C19.802 3.18586 19.6972 3.14094 19.5879 3.14094H18.3645C18.2552 3.14094 18.1504 3.18586 18.0731 3.26583C17.9958 3.34581 17.9524 3.45427 17.9524 3.56736C17.9524 3.68046 17.9958 3.78892 18.0731 3.8689C18.1504 3.94887 18.2552 3.99379 18.3645 3.99379ZM15.4545 3.99379H16.678C16.7873 3.99379 16.8921 3.94887 16.9694 3.8689C17.0466 3.78892 17.0901 3.68046 17.0901 3.56736C17.0901 3.45427 17.0466 3.34581 16.9694 3.26583C16.8921 3.18586 16.7873 3.14094 16.678 3.14094H15.4545C15.3453 3.14094 15.2404 3.18586 15.1632 3.26583C15.0859 3.34581 15.0425 3.45427 15.0425 3.56736C15.0425 3.68046 15.0859 3.78892 15.1632 3.8689C15.2404 3.94887 15.3453 3.99379 15.4545 3.99379ZM17.5234 6.13473C17.7528 6.13473 17.9354 5.9413 17.9354 5.7083V4.4422C17.9354 4.20481 17.7485 4.01577 17.5234 4.01577C17.2982 4.01577 17.1113 4.20921 17.1113 4.4422V5.7083C17.1071 5.9413 17.294 6.13473 17.5234 6.13473ZM17.5234 3.12335C17.7528 3.12335 17.9354 2.92992 17.9354 2.69692V1.42643C17.9354 1.18904 17.7485 1 17.5234 1C17.2982 1 17.1113 1.19343 17.1113 1.42643V2.69253C17.1071 2.92992 17.294 3.12335 17.5234 3.12335Z" fill="#4D4D4F"/>
</svg>
