<svg width="25" height="25" viewBox="0 0 25 25" fill="none" xmlns="http://www.w3.org/2000/svg">
<path d="M12 22.0979C11.8276 22.0979 11.6552 22.0117 11.4828 21.9255C5.44828 17.7014 2.34483 13.7358 2 9.94273V8.82204C2.34483 5.11515 4.75862 3.2186 6.91379 3.04618C9.58621 2.78756 10.8793 3.64963 12 4.77032C13.1207 3.64963 14.5 2.78756 17.0862 3.04618C19.2414 3.2186 21.6552 5.11515 22 8.73584V9.85653C21.7414 13.7358 18.6379 17.6151 12.5172 21.9255C12.3448 22.0117 12.1724 22.0979 12 22.0979ZM7.77586 4.68411C7.51724 4.68411 7.25862 4.68411 7 4.68411C5.53448 4.85653 3.89655 6.14963 3.63793 8.82204V9.77032C3.89655 12.7876 6.65517 16.322 11.9138 20.0289C17.1724 16.2358 19.931 12.7876 20.1897 9.68411V8.73584C20.0172 6.14963 18.2931 4.77032 16.8276 4.68411C14.7586 4.5117 13.8103 5.02894 12.6034 6.58067C12.431 6.75308 12.1724 6.92549 11.9138 6.92549C11.6552 6.92549 11.3966 6.83929 11.2241 6.58067C10.1897 5.28756 9.41379 4.68411 7.77586 4.68411Z" fill="#91969A"/>
</svg>
