<svg width="44" height="44" viewBox="0 0 44 44" fill="none" xmlns="http://www.w3.org/2000/svg">
<g clip-path="url(#clip0_106_308)">
<path d="M34.1414 12.1424L29.0212 17.2983L26.7017 14.9788L31.8576 9.85858L32 9.71716L31.8581 9.57525L27.9828 5.7H38.3V16.0172L34.4248 12.1419L34.2828 12L34.1414 12.1424ZM12.1424 9.85858L17.2983 14.9788L14.9788 17.2983L9.85858 12.1424L9.71716 12L9.57525 12.1419L5.7 16.0172V5.7H16.0172L12.1419 9.57525L12 9.71716L12.1424 9.85858ZM17.2983 29.0212L12.1424 34.1414L12 34.2828L12.1419 34.4248L16.0172 38.3H5.7V27.9828L9.57525 31.8581L9.71716 32L9.85858 31.8576L14.9788 26.7017L17.2983 29.0212ZM29.0212 26.7017L34.1414 31.8576L34.2828 32L34.4248 31.8581L38.3 27.9828V38.3H27.9828L31.8581 34.4248L32 34.2828L31.8576 34.1414L26.7017 29.0212L29.0212 26.7017Z" fill="black" stroke="white" stroke-width="0.4"/>
</g>
<defs>
<clipPath id="clip0_106_308">
<rect width="44" height="44" fill="white"/>
</clipPath>
</defs>
</svg>
